<svg xmlns="http://www.w3.org/2000/svg" xml:space="preserve" viewBox="0 0 1077 1697"><path fill="none" d="M0 849V5c0-4 1-5 5-5h1067c4 0 5 1 5 5v1687c0 4-1 5-5 5H5c-4 0-5-1-5-5V849z"/><path fill="#000F13" d="M4 1648v-58c-2-59 0-119-2-178v-13c0-5 2-7 6-8l46-17 147-60 31-14 9-5c2-1 0-2 0-3 2-4 6-7 10-9l9-7 6-1h13c3 0 6-1 6-5l1-2c3 1 1 4 3 6 3-1 3-4 5-6l4-4c3-4 6-4 10-1v1c1 6 1 6 6 3 12-6 23-12 31-24 1-1 2-2 3-1 5 4 11 2 17 2 2 0 2-3 3-4 2-1 2 3 4 2 3-2 5-4 8-4 7-2 14-3 20-6 7-3 9-8 10-14l4-15 2-2c3-2 4 0 4 3l2 13c1 3 2 4 6 3l19-9c4-2 6-5 6-10l-1-12 1-3c2-1 3 1 3 2l6 15c3 3 6 0 9-1 2-2 4-3 7-1 1 2-1 2-2 4 4 3 8 6 13 6 2 0 4 0 4 2s-1 3-2 3c-4 2-5 5-5 8-2 8-3 8-10 9-5 1-6 2-5 7s0 9-5 11c-3 1-3 3-3 5-1 5-3 10-7 13-8 5-11 12-15 19-6 10-12 12-21 6-3-1-6-3-9-2-10 5-19 11-29 15a776 776 0 0 1-28 55l-9 19c-4 6-5 6-9 0-9-15-17-29-27-42-4-5-4-5-9-2l-15 7c-7 2-7 2-7 9 2 17 2 34 1 51l-1 96-1 10c0 2 1 4 4 2l24-11c3-2 4-4 4-7v-39l1-37c0-3 2-4 4-2l4 4 21 28c3 4 3 4 5-1 5-14 12-27 19-39l8-17 3-3c2 0 2 2 3 3v44l2 30c0 5 1 5 6 3 7-3 15-7 23-9 2 1 3 5 6 3 2-2 3-3 3-5v-3c3 1 6-2 10 0 2 5 2 6 8 4 7-1 15-3 22-7 3-2 7-1 10-5l2-1c10 1 21-2 31 0 4 1 8 0 12-1l2-1c2-6 7-9 11-13 4-5 11-7 18-8h8c6-1 8 2 8 7 0 8 2 10 10 10l13 2c5 3 6 7 2 12-4 6-9 9-17 11s-15 7-22 11c-9 5-19 8-28 12-14 5-28 7-40 17l-2 2c-9 2-18 5-26 10-4 3-10 3-15 5-7 3-16 4-23 8-10 4-20 6-29 11l-2 1c-16 4-30 12-45 18l-29 13c-7 3-15 5-22 9-9 6-20 10-30 13-2 0-3 0-4 2-3 4-7 4-11 5-13 0-24 5-35 10-5 3-11 4-14 8l-4 2c-11 3-22 7-32 14l-9 2-26 8-23 8-18 9a380 380 0 0 0-55 19c-7 2-10 1-12-7l-1-12c0-17-4-34-3-51l-1-3 1 12v23c-1 2 0 5-3 5z"/><path fill="#01060A" d="M653 141c2 5 6 9 7 14-4 0-6 2-6 6-1 5-3 8-9 8-3-1-4 3-6 4-3 0-4-3-5-5l-12-24-1-1c-2-7-6-13-9-19-8-16-20-29-31-42-8-9-17-16-26-24l-10-7-5-6c1 4 5 6 3 10-2 2-5 1-8 0l-6-4c-9-7-18-10-29-11l-17-2c-1 0 0 0 0 0v1c4 3 9 4 13 6 1 1 3 2 2 3 0 2-2 2-4 2l-17-2c-7-1-8 0-7 8 2 8 5 17 6 26 1 3 3 4 5 5 14 9 28 15 43 20 1 0 4 3 4-2 0-2 2-1 3 0a41 41 0 0 0 10 7l6 5c5 3 8 7 12 11 1 1 3 3 2 5s-3 0-5 0c-19-8-39-13-59-22 6 11 12 21 16 31a328 328 0 0 1 22 91c-1 20-1 40-6 60-1 7-3 13-6 19-5 2-5 6-5 10v12c-1 6-3 7-7 3l-4-5c-6-13-16-23-26-33l-4-6c-6-7-13-13-22-16l-43-19-11-4 8 8c10 12 19 25 28 39 2 3 5 5 4 8-1 4-5 4-8 6l-7 4-3-1v-3l5-4c2-2 2-4 0-7a233 233 0 0 0-63-18c-10-1-21-3-31 0-11 4-22 2-33 3-6 0-11-2-16-4 4 6 11 10 16 14 4 3 7 5 8 9 2 4 1 7-4 7-3 1-6 2-8 1l13 4 45 22c2 1 5 2 4 5 0 2-4 1-6 2-13 0-26-1-39-5-16-3-31 0-46 4l-11 2 13 4 4 2c0 3-2 4-4 5l-15 5c-12 4-22 9-33 15-1 0-2 0-2 2l11 1c3 0 5 0 8 2l4 1c1 0 3-2 4 0 2 1 1 3 0 5-5 7-12 11-19 14l-1-5c0-1-1-3-3-3l-2 3c-3 8-14 13-22 12l-3-1c-2-3-5-2-7-3-14-1-25-8-34-18h10c8 0 14-2 21-5 2-1 3-1 3-3-1-2 0-3 1-3 9-9 18-17 29-22 6-2 6-3 2-7-2-4-4-7-4-11-1-9-6-16-13-22l-27-24a124 124 0 0 1-16-22c-1-3-1-4 3-3 7 2 14 6 20 9 5 1 9 4 14 7l12 5c5 2 10 2 15 2a86 86 0 0 1-39-30c-11-12-22-25-31-39-13-17-15-37-15-58 3 1 4 3 5 5l13 14c2 2 2 4 2 6l5 14 4 8a95 95 0 0 0 42 41l-6-8c-4-5-9-10-10-16 1-4 3-4 6-1l6 8c-1-5-3-9-3-14 0-2 0-4 3-4l1 1 3 4c-1-4-1-7-3-9l-2-7-3-10-2-6-3-7-1-12c0-1 0-3 2-4l3 3 2 3c1 4 4 6 5 9l6 9-2-6-4-13-3-15c-2-8-1-16-1-24l3-13c1-4 3-4 5-1l2 11 3 14 6 20-1-11c-1-11-3-23-1-34l1-3 2-2 1 2v5l2 24-1-24c-1-6-3-12-1-19l2-6 2-2 2 3c1 22 7 43 9 65 2 23 9 47 17 69 4 11 8 22 14 33 0-11-3-21-4-30l-1-10c-1-1-1-3 1-4l3 3 10 16c-1-3-4-5-4-8 0-1 0-2 2-2l4 4c4 8 9 14 16 19 2 2 3 3 6 3l-2-6c-18-31-33-63-45-96-8-23-10-47-2-71 2-5 4-11 8-16 3-6 3-7-2-11l-1-1c-2-2-2-6-6-6s-8 2-11 4l-2 1c-11 7-18 18-24 29l-5 8c-1 2-2 3-4 2-2 0-2-2-2-3l-1-15v-2l-5 5c-3 0-3 2-5 4-3 4-6 5-10 4-5-3-5-8-1-13l4-5c11-13 23-25 36-35l4-3c5-2 6-1 6 4-1 4 1 4 4 3 12-5 26-5 39-4 8 0 10 2 9 10v3c0 2-3 5-1 7s5-1 7-1c4 0 4 2 3 4l-5 8c-6 9-11 19-14 29s-3 19-2 29a328 328 0 0 0 44 111c1 2 2 2 4 1l18-13c13-8 27-12 41-17 15-5 31-8 46-11l10-1h64c4 0 5-1 4-5-9-31-22-60-42-86-4-6-10-10-14-17v-5c1-3 0-6-1-9-2-9-2-18 1-26 3-13 19-23 33-24 13-1 25 0 37 5l5 2c4 1 5 0 4-4l-5-15c0-2-1-4 1-6 2-1 4 0 5 1 7 4 11 10 16 16 7 9 13 17 22 25l-2-17c-1-3-3-9 0-10 4-2 7 3 9 6 7 10 13 21 18 32 7 17 16 34 30 47 7 7 11 16 14 25 2 4 3 7 6 10 1 1 3 2 5 1 2 0 3 1 4 3z"/><path fill="#01090E" d="M411 1291c4-2 7 1 10 2 2 1 3 3 6 3 7 0 10-2 14-10 1-3 2-5 4-6 2-2 3-4 3-7 0-2 1-3 4-4 5 0 7-6 8-10l2-5c0-3 1-4 3-5 5-1 5-5 4-8-1-7 1-9 7-9 5 0 7-2 8-7 0-4 1-9 6-10l2-2-3-1c-6 2-10-4-15-5-2-1 0-3 1-4 1 0 3 0 3-2 1-2 3-2 5-3l22-9c3-1 2-3 2-4l-2-5c-3-4-4-9-5-13l-7-26c0-2-1-4 1-5 4-1 5 3 7 4l13 17 3 5 6 5 4 3v6c1 3 1 6 5 5s7 0 9 3l2 1c6-1 12 2 18 0 3-2 6-3 7-7l2-4-4-1c-2 0-4 0-5-2l2-5 8-5 2-1 9-3 3-1 2-1 20-2c6 1 10-4 16-5 6-2 12-7 18-7l5-4 8-10c2-2 1-4 0-6-2-5-6-9-6-15 2-3 1-5 0-8-1-6-1-6 5-6 4 1 7 0 10-2 6 1 10 5 15 6l7 2c8 3 16 2 25 1h4c5 0 9-2 12-6 1-2 2-3 1-6s1-4 4-4h16c4 0 6 1 8 4 1 3 0 6-2 8l-3 3c-1 0-2 1-1 2h3l6-3c2-1 5-2 7 0 1 3 5 2 7 5-4 3-9 4-14 6-25 11-51 19-76 31l-4 1c-6 1-12 4-17 6l-1 1c-4-1-5 2-8 3l-14 6c-3 0-5 0-7 2l-19 11h-3c-10-4-17 3-25 8 0 2 3 1 4 3-8 11-6 22-5 34v10c-1 3-3 3-5 4l-36 15-17 7c-4 2-6 5-5 10v11l-1 12c0 3 1 3 3 2 9-3 18-5 26-9l5-3c6-2 8 0 8 7v4l-1 14-1 5-4-2c-2-2-3-3-3-5-2-3-4-3-7-1s-5 5-5 10l-2 8c-2 4-2 8-1 11l8 16 3 2c2 0 2-2 3-3 0-3 0-6 2-9 0-1 1-2 3-2s3 1 3 3v59c0 2 0 4 2 6l3-1 17-1c4-1 6-3 6-8 1-2 3-4 7-3 1 4 4 5 8 1 1-1 3-4 6-3s3 4 4 7c1 6 4 13 4 20-1 3 0 6-2 9-1 2 0 4 2 6s3 1 5 0c3-2 6-4 11-4h1c4-5 11-4 16-6l8-4c6-4 13-4 19-5 2-1 5-1 7-3l1-1c7 0 13-6 20-8s14-7 22-8c10-3 19-9 29-10l6-3c4-2 8-5 14-6l4-2c6-5 13-8 21-9 5-1 10-3 14-6 2-2 4-2 6-2 2 1 5-1 7-1 10-3 17-11 27-12 4 0 9 0 12-5l5-2c10-1 18-6 27-10 5-2 11-5 17-6l7-3 11-4c5-1 10-3 13-7 2-2 4-3 7-2 6 0 11-1 16-5l3-2c8-1 15-7 23-10l4-1c5 0 9-2 13-5s10-4 15-5c3-1 5-1 7-3s5-3 7-3c6-1 8-3 8-8v-34c0-2-1-5 2-6 2 0 2 2 2 4l1 20c0 6 1 11 6 15 3 1 4 3 5 6 0 2 1 4 3 5 2-2 1-4 1-6l1-15c0-2-1-5 2-5v39c0 2-1 4-3 4-54 19-106 41-159 61l-145 56-134 52-57 22c-34 14-68 26-102 41l-68 26c-19 8-39 14-58 23l-57 23-57 22-65 27c-14 5-27 11-41 15l-33 13c-14 7-29 11-43 17l-40 17c-2 1-5 2-7 1v-47c2-1 1-3 1-5v-38l3 10c0 20 3 39 4 59 1 7 4 8 11 6 17-5 33-13 50-17 5-2 11-3 16-8 3-3 8-3 12-5 14-6 28-10 43-14l18-7c8-3 15-8 24-9l3-1c10-9 24-12 37-17 5-2 11-2 16-3l4-1c3-6 11-6 16-8l21-10c7-4 14-6 22-8 7-2 13-8 20-10l32-14 29-11 33-12 22-7c9-2 17-9 26-12h1c10 0 16-10 26-12 9-2 17-7 26-9l24-11c9-4 18-11 28-12 3 0 6-3 8-5l5-7c2-1 0-5-3-7l-10-2-9-1c-5-1-6-3-5-8 1-6-1-9-7-8h-7c-7 0-11 4-17 5-2 1-2 2-2 4l-4 4c-3 1-4 3-5 6s-2 4-5 3l-43 1h-1c-5 7-13 6-19 10l-15 4c-5 1-7-1-7-7 0-2 2-2 3-3l8-4c11-5 11-5 13-17l3-16c1-3 3-6 7-7l36-14c8-2 10-1 11 7l3 15c0 3 2 4 5 2 6-4 13-5 21-6l8-1c4 0 5-2 3-6l-3-3-11-26-23-60-17-45c-3-8-3-8-11-4l-3 1c-2 0-4-2-4 2-2 3-4 3-7 4-2 1-4 1-5 4l-2 13c0 2 0 4-2 4-5-1-2-6-4-9-2 3-4 6-4 10v4c-3 6-3 14-5 20l-3 21c1-2 2-5 5-5 2 3 1 5 0 8l-13 43c-1 2-1 4-3 5-3-1-3-3-2-5l4-15c3-5 4-12 4-19l-2 4c0 4-1 7-3 10-3 4-5 8-6 13 0 2-2 4-4 4-3 0-3-3-4-4 0-6 0-11-3-16v-1c0 3-2 4-4 3l-1-4 2-3c4-6 4-12 5-18l1-12v-8l-2-11c0-4-1-6-5-7-2-4-2-7 0-11z"/><path fill="#010204" d="M197 411c11 2 21-1 25-13 1-4 2-3 4-1 3 3 3 6 2 9 0 2-2 4-4 5h-3c-4 1-5 2-4 6l-1 2c-2 1-5 2-5 6-9 13-8 26 2 40v-10c-1-3-1-6 1-9 3-2 4 1 5 3l8 13 2 3c3 2 6 1 8 0s0-3-1-5l-1-3c-1-2-3-4 0-6 2-1 3 2 5 3l8 9c4-2 4-2 9 1 2 2 4 2 7 3 24 4 44 17 63 32 17 13 33 28 46 45a334 334 0 0 1 57 116l7 32c2 5 2 5 6 4l43-13 17-6c10-4 20-7 29-12l6-1 28-11 5-2c6 1 9 5 10 13l-4 2-30 11c-28 10-56 20-85 28-11 2-22 5-34 5-6 1-6 0-6-6l-1-3c-5-6-11-9-18-11-9-4-18-6-28-5l-9-1-5-1c-6-3-10-7-14-11-3-6-2-8 4-9l8 1c-4-5-9-7-13-10-2-1-4 0-5-3l3-2c3 1 6 0 9-2 0-2-2-3-4-4-8-6-16-10-26-11-2 0-4 1-4-2-1-2 2-3 4-3 8 0 15-1 23 2-4-8-10-12-18-13l-5-1c-3-1-6-1-6-4s4-2 6-2c5 2 10 1 15 2-4-5-8-11-16-13-3-1-7-2-9-6 1-3 2-2 4-2 2 1 5 3 8 3-5-6-11-10-17-14l-6-2c-1-1-3-2-3-4 1-2 3-1 5-1h1l8 3v-1c0-2-1-3-3-4l-10-9-1-2c-2-7-9-9-14-13-2-2-5-5-9-5-2 0-4-2-6-4-13-9-26-16-43-15-4 0-7 1-11 3-13 8-26 16-36 28l-8 4c-8 3-16 6-23 12-9 8-7 22 4 28 4 2 7 6 9 10l12 19c2 3 4 1 6 0l6-8 7-14c4-9 10-14 19-17 8-2 16-2 24 0l15 7c5 2 9 2 12-2 6-7 6-15 0-21-3-3-7-5-9-9-1-1-3-2-2-3 1-2 3-1 4 0 11 7 20 15 23 29 0 2 0 4-2 6-8 13-20 21-35 23-17 1-30 9-42 19l-11 10c-6 4-9 10-10 17s-3 13-1 20c2 16 13 27 30 30 13 2 25-1 37-5l10-3 8-1 11-5 26-16 4-3 3-4c2-2 4-4 2-7l1-5c2-2 4-1 6 0l5 4c8 7 16 11 25 15 1 1 3 1 3 3s-2 2-3 3c-5 2-9 6-15 8-8 2-14 6-21 9l-23 9-13 5c-11 3-21 5-31 9-20 8-39 10-60 4l-11-5c-2-1-4-3-6-2-3 2-1 5-1 7 2 8 5 15 11 21l14 14 8 4-3-10v-3h3l8 4c5 5 10 8 16 11l3 1c3-5 6-2 9 0l3 1c2 1 3 4 4 6 1 1 2 2 3 1 2-1 1-2 0-4-2-3-5-2-8-4l-7-4c-1-1-3-2-2-4 3-1 5 0 7 1 4 1 9 3 14 3l11 2c4 2 4 3 2 6l-1 5c2 4-1 5-4 6h-6c-3 0-5 1-5 4 0 4-2 4-5 6h-17l-9-2c-4-1-7 2-11 1-24-7-42-22-55-43-6-9-11-18-11-29 0-3-2-4-5-4-15-1-30-24-27-36 1-6 0-11 2-17 2-3 2-7 2-11l5-10 17-29c2-4 2-6 0-10-5-7-9-14-10-23-1-17 6-30 20-39 13-8 27-15 39-24 6-4 10-8 13-14s3-11 0-16c-6-11-12-21-20-30l-10-8c-5-3-9-7-12-13l15 3 8 2c6 0 7 0 8 6 2 12 10 18 20 21l5 4h2v-2c-3-3-3-7-4-10l-2-3c-7-4-7-13-11-19-1-2 0-5 1-7l2-4c1-1 3-3 2-5s-3 0-5 0c-5 0-6-1-5-6l2-4c0-3 3-4 5-7l3-1z"/><path fill="#000F13" d="M240 799c1-1 4-2 3-6 0-3 3-5 7-5h5c3 0 7 0 4-4-1-2 0-4 1-5 3-3 1-4-1-5-4 0-8 0-11-2l3-1c-5-2-10-5-14-9-2 0-3-2-3-4h5l24 4 5-1-12-6c-2-1-7-2-6-5 1-4 5-2 8-1l22 2 9 1-18-8c-1-1-3-2-2-4 0-2 2-2 3-2 10 1 20 3 30 2-1-3-3-3-5-4l-17-4c-2-1-4-1-5-3 3-3 6-2 9-2a71 71 0 0 0 22 1l3-3 4-7c1-1 3-4 4 0v14c7 26 32 43 60 38 15-2 27-7 39-15 5-3 7-9 12-12 2-1 4-1 6 1l12 11 5 6c9 9 17 19 24 31 0-8-1-14-3-20l-11-24c-1-1-3-3-1-5a386 386 0 0 0 33 34l12 15a129 129 0 0 0-12-61c1-3 2-2 4-1 14 13 30 24 40 41l4 9c0 1 0 2 2 2l2-2 1-6c-1-13-5-26-10-39-1-2-3-4 1-5l4 3 7 9 11 15 6 9c1 1 3 2 4 0 4-8 5-17 3-25-1-7-3-13-6-19-1-1-2-3-1-4 2-1 3 0 4 1 10 7 17 16 21 28 1 1 1 2 3 2 3-7 4-15 1-23l-9-24c0-1-2-4 2-4 6 3 8 9 12 14l5 8c1-4 0-9-1-14l-2-12c-1-5 0-8 3-12l1-1c1-2 3-3 3-6l3-3c6 1 13-1 19 2 4 1 8 2 11 5 3 2 4 1 5-3 3-1 4 0 6 1 6 3 11 5 18 5 3-1 3 0 2-2 6-2 11-2 17-1 2 0 4 0 5-2 9 3 18 1 27 0 2 1 1 2 0 3l-5 2c-3 0-5 1-4 5 1 1 0 3-2 3-3 0-5 2-8 3l9-2h5l15 7c6 4 6 16 0 21-2 2-4 5-4 8-3 6-2 13-1 19-1 4 1 8 1 12v9c0 4-1 7-6 8-3 0-4-1-5-3-7-18-16-35-29-49l24 51c-1 4-3 2-4 0l-16-21-21-28c-5-7-14-10-21-14l-16-5 6 9 2 3c-1 2-1 2-3 2-3-1-6-5-8-8-2-1-3-1-3 1-2 8-6 15-10 22-3 4-4 9-5 13-2 10-5 20-9 29-2 2-1 5-1 7-3 11-8 22-15 31l-3 1c-2-1-1-2-1-4 4-9 6-18 9-28l2-2c1-4 1-5-3-5-2 0-4 2-5 3-7 6-11 13-14 21l-4 10-6 23c-3 10-7 19-12 28l-1 1c-1 2-3 3-5 3-2-1-1-3-1-5 2-11 3-21 3-32 1-8-3-13-7-20 0 9-3 17-5 25-5 14-10 28-18 40a95 95 0 0 1-18 21c-2 2-5 4-7 2s0-4 2-6c4-8 6-17 9-26l4-12c1-9-1-17-3-25-2-7-7-13-11-20l-2 8-5 29-7 15c-8 17-18 33-35 43-4 2-9 5-14 6l-3-1c-1-1 0-2 1-3 9-7 16-16 20-26 4-5 5-12 8-18l4-12c2-8 1-16 0-24l-3-14 1 23-1 3c0 2-2 4-4 4s-3-2-4-4l-6-18-3-4-2 18-1 1-2 11-3 10-8 15c-8 14-20 23-34 29-2 1-4 2-6 0-1-2 1-3 2-5a153 153 0 0 0 30-46c2-3 2-7 3-10l1-10-1-2c-2-1-4-1-4 2l-3 7c-2 7-6 13-10 18l-3 3-2-1c-2-4-1-7-1-11 0-9 1-19-2-27 0 3 0 8-2 11-1 1-1-1-2-2v-5c1-10-1-14-11-18l-3-2c-2-2-3 0-4 2-3 1-5 4-7 7-5 8-11 17-18 24-2 2-4 4-7 1-1-4 1-8 2-11 1-7 4-13 1-20 1 5 0 10-3 14-2 3-3 3-6 0l-7-9c-1-1-2-3-2 0l-1 10c0 2 1 4-1 6-4-1-2-5-5-7v11c0 2 1 4-2 5-2-2-1-5-1-8s0-7-3-8c-3 0-3 4-4 7l-2 6v2l-5 13-8 14c-1 2-2 4-4 3-1-3 0-6 1-9 6-9 8-19 6-30 0-2 1-5 3-6l1-2-2-1-2 1c0 3 1 6-3 7l-7-3-8-1c-4 0-6-2-6-6s-1-9 1-13c1-2 3-3 0-4-2-1-3 1-3 2-1 4-3 7-6 9h-3l3-7c2-5 2-5-3-5s-9 2-13 3l-7 1z"/><path fill="#010608" d="M260 807c3-3 7-4 7-9 1-2 2-4 4-4s3 0 4 2l-1 4c-3 5-3 10-2 15 0 2 2 3 3 3 5-2 10 1 15 3h3l1-4c-1-1-2-3 0-4 3 0 5 0 7 2 1 1 0 2-1 2-3 2-4 5-4 9 1 7 1 15-3 22-2 5-6 10-5 15 1 3-1 4-3 6 8-2 19-13 24-23 3-4 3-9 6-12 2-5 1-10 1-15v-3c2-1 3 1 3 2l3 7c2 1 2 3 2 5v11c0 5-2 10-5 15l-3 6c0 1-2 3 0 5 2 1 4 0 5-1l7-5 5-2 1 2-5 9c-9 12-16 26-23 38-10 17-21 28-34 39l18-5c17-8 32-20 45-34 5-4 7-11 11-16 8-13 16-27 21-42 3-8 4-16 4-24 1-5 1-9-1-13 0-3-2-6 0-10 0-2 0-4 2-5s2 2 4 3c3 1 6 2 9 5 5 3 7 7 6 12l-1 10c2 3 1 5 1 7-2 10-6 20-10 29-6 13-13 25-25 33-10 6-16 14-22 23l-29 42c-1 3-3 5-5 6l-21 23-9 11c0 1-1 2 1 1l4-1c12-3 23-10 33-17l1-1c1 0 3-2 5-1 2 2-1 4-2 5-6 9-14 17-23 24-7 5-12 10-17 16-7 8-15 14-22 20l-5 4c11-1 21-6 30-11l24-13c2-1 5-4 7-1 2 2-1 4-2 6-7 8-13 17-18 26l-13 22c-7 7-12 16-18 23-4 3-6 8-9 13 4-2 7-3 10-6l8-6c2 0 4-1 4 1v2c-4 4-9 8-12 13-3 4-8 7-12 10l-7 7 8-2c20-8 38-18 53-33l13-10c2-2 4-4 6-2 1 2-1 4-2 5l-38 53-5 9-7 9c-4 9-9 18-15 25l-2 4c0 2 1 0 1 0 7-6 12-13 17-20l10-14c2-2 3-4 6-5 3 1 2 2 2 4-7 12-12 24-17 36-3 6-5 12-6 19l7-11a308 308 0 0 1 20-26c5-3 5-3 5 1-12 20-19 41-29 62l-4 10-3 8c-1 2-2 4 0 6l4-4c7-9 19-13 27-21l4-1c2 0 4 1 4 4l-9 24-1 1c-2 7-2 7-9 7h-2c-12-2-20 6-29 12l-5 5c-4 5-9 7-15 5v-10c2-14 6-28 11-42 1-3 5-7 3-10-2-2-7 1-10 2l-25 7c-7 1-13 0-18-2-1 0-3 0-2-2l1-1c24-10 37-29 46-51 4-10 8-19 14-29-10 0-21 1-31-1s-20-3-30-10l10-5c11-6 18-15 25-25l28-40 6-8-16 3c-16 3-30 0-44-7-1 0-3-1-3-3l3-2c10-3 18-9 25-16l21-22c2-1 1-3 0-4l-4-4c-2-3-3-5 0-8 15-12 28-25 40-39h-27c-9-2-18-5-25-11 33-12 52-38 68-69l-15 5c-12 4-24 3-35-1-2-1-4-2-4-4s2-2 3-2c18-9 29-24 35-43l5-14c2-1 1-3 1-4l-4-1-3 2c-10 3-19 3-28-1-3-2-2-4 0-7 5-4 10-7 13-12z"/><path fill="#000F13" d="M772 1102c-3-1-6 0-8-4-1-2-9 1-11 4 0 1-1 2-2 1l-5-4c0-2 2-2 3-2 4-1 6-5 6-8-1-4-4-5-8-5h-15c-3 0-5 0-3 4 2 2 0 4-1 6-4 5-9 5-15 6s-11 0-17 2c-4 1-8-1-11-3v-2c-13-9-21-22-29-35l-1-2c-1-1-2-3 0-4 1-2 3 0 4 1l15 14c8 7 17 11 27 13l-9-9c-5-4-9-8-11-13 0-8-3-15-9-20-4-3-5-7-8-10l-10-16c-4-11-8-21-14-32v-4c1-1 3 0 4 1l8 7 19 17c12 10 25 20 40 25l-13-15-9-7v-1c0-3 1-4 4-3l6 2-5-11-10-10c-10-14-22-26-31-41l-6-10-2-5v-5c1-1 3 0 4 1 5 2 9 5 12 8l19 19c11 9 21 20 34 27l12 5-7-11c-5-12-9-25-15-36-3-5-2-7 4-6 5 1 10-1 15 2l-5-12c-2-3-4-5-2-8 3-1 4 2 6 4 2-7-1-12-5-17-2-2-4-4-4-6-2-5-1-8 4-10l4-4c1-2 1-3 3-3 5-3 6-8 6-12-1-4 1-7 4-9 3 1 3 4 4 6 10 16 22 31 40 39l1 1c2 1 2-1 3-1 6-1 13 2 19 3l8 2 17 9a58 58 0 0 1-52 9l5 10c-2 1-4 0-5-1-2-1-3-2-5 0-5 3-5 3-8-1-1-1-1-3-3-2 6 8 12 17 19 24 1 2 3 3 2 5-2 1-3-1-5-2-10-10-19-20-25-30 2 7 7 14 13 20l10 9c1 1 4 2 3 5-2 2-4 1-6 0-3-1-5-1-7 1-1 2 1 4 2 5 2 3 4 6 8 5 3 0 5 2 5 5 1 5 5 8 10 9s10 3 15 2c2 0 3 0 4 2-9 2-17 0-27-3 13 22 29 38 55 42 1 0 3 0 3 2 1 1-1 2-2 3-2 3-5 5-8 6-2 1-4 3-7 3-4-1-3 1-2 3-1 2-2 2-4 1 3 2 6 5 8 9 1 3 4 5 8 6 9 2 11 8 5 16l-10 4-45 17c-3 1-5 4-8 3z"/><path fill="#010203" d="M639 173c1-4 3-6 8-6 3 0 5-1 5-4l2-6c1-3 3-5 6-2 3 5 3 11 3 17s3 11 10 13c25 10 48 24 66 46 17 19 28 42 37 66 2 4 3 8-2 11-1 1-2 2-1 3 5 8 5 17 6 25 3 20 5 40 5 60 0 5 2 8 6 11 23 18 39 40 40 71 2 36 1 72-6 107-4 22-15 40-29 56l-10 12-11 11h-1c-4-3-4-9 1-13l4-3c2-2 3-4 0-6-2-2-5-3-6 0-4 6-9 6-15 6-4 0-9 2-14 1l-2-2 3-2c14 0 26-6 36-17 8-10 15-20 20-31a379 379 0 0 0 9-123c-3-10-8-18-12-27-3-4-5-8-9-10l-15-9c-9-5-18-4-27 0l-7 3h-2c-4-2-4-4 0-7 3-2 2-3-1-4l-3-1c-6-3-7-4-5-11 11-6 10-17 9-27-1-12-1-25-3-37l-1-14v-5c2-1 4 0 5 1 3 2 5 5 5 9a2023 2023 0 0 1 10 57c0 3 1 5 3 6 3 1 5 4 8 2 2-1 0-4 0-6-4-19-4-39-8-58l-2-15c0-5-7-13-11-15l-7-3c-2-2-3-4 0-6l6-1c9-2 9-2 6-10-7-17-17-32-30-45a91 91 0 0 0-43-29c-4-2-5-1-4 3 0 6 2 10 7 13 7 5 12 13 17 20 8 11 15 23 21 35l2 5c1 4 0 8-3 11-1 1-2 2-3 1-6-5-11-13-14-20a439 439 0 0 1-14-26l7 13c2 4 4 8 4 12-5 1-8-1-8-5l-2-9c-2-2-3-5-7-4-2 1-3 0-5-1l-2 1v2c3 3 3 6 1 10-1 2-1 4 1 6 3 3 2 6 0 8s-3 4-3 7c-3 8-6 17-6 26l-2 7c-1 2-3 3-5 3-3-1-2-3-2-5v-7c-2-3-1-6-1-8v-3c0-14 2-29-1-43l-3-18c2-6 1-11 0-17-1-14-3-28-7-41l-3-9c-1-2-2-4-1-6z"/><path fill="#01080C" d="M744 647h-2v1h10l9-1c4 1 7 0 9-4 1-2 2-5 4-4s6 0 7 4c1 3 0 5-2 7l-4 2c-4 2-5 8-2 12-10 10-7 21-3 32 6 20 16 39 22 59 3 8 7 17 7 26 0 3-1 3-3 4h-11c-4 0-8 0-12-2-1-2-3-3-5-2v2c0 5 2 10 5 14 6 11 8 24 12 37l1 7v10c-5 3-8-1-12-2-1 0-3-2-4-1-1 2 1 3 1 4 8 21 21 39 38 54-1 3-2 2-4 1-8-2-16-5-24-5-4-1-6-5-8-8l-14-17c-1-2-3-4-6-5-8-6-16-10-20-20l-1-2 2 4v3c-2 3-3 5-3 9s-1 9-7 13l-10 9c-3 3-1 7 2 10l5 7c4 4 3 10 3 15-3-2-4-6-8-6-2 0-3-2-3-4-1-3-1-6-4-8-4 1-2 3-1 5 2 6 4 12 8 18l1 3v3c-1 1-2 0-2-1-6-5-13-11-15-19 1-2 0-4-1-6-3-5-3-10 1-14l1-6c-2-15-4-30-8-46l-4-24v-13l-1-10 1-1c3-2 5-4 9-3l3 3v2c0 5 1 7 6 6l4 4c0 6 6 9 10 12 9 9 17 18 24 28 0 2 2 4 3 5l7 8c2 1 4 1 3-1 0-4 2-7 4-10 7-9 6-14-2-22l-3-1-1-2c-9-12-15-25-16-40l-7-32-5-14c0-3-3-5-2-8-1-3-1-4 2-6 7-4 8-16 3-20l-9-6-7-2h-4c-3 3-7 2-11 2-1 0-2 0-2-2l2-1c4 1 6-4 10-3v-3c-2-3 0-4 2-4 4 0 7-1 10-3 2-4 5-3 8-5l7-3 4-4c-7-1-14-3-20-2s-11 2-16 1c-3 0-5 0-7-3 0-2 4-4 3-6 0-3-1-6-3-8s-4-4-2-7c1-3 3-5 6-5l6-1c4 0 6-2 9-5 2-1 2 1 3 2 5 7 12 12 21 13 2 0 3 0 3 2z"/><path fill="#000307" d="M835 1077c3-3 1-7 1-10 1-2-2-3-3-3-7-1-12-3-14-10-1-3-4-5-7-6l-2-2c1-2 2-1 3 0s3 2 4 1c4 0 6 3 9 5l3 2c2 2 4 0 7 0l42-17c51-19 102-40 152-60l38-14c3-1 5 0 5 4-2 89 1 178 0 267v2c-2 4-1 8-1 12v13c0 1 0 3-2 3-2 1-2-1-3-1l-2-2c-1-5-4-9-9-12-3-3-3-8-3-13 1-8 1-16-1-24-2-1-1-3-1-4 0-5 1-10-1-15-1-5 1-9 1-14v-43l1-52c0-11-3-22-2-33l1-11v-8c-3-11-1-23-1-34 0-2 0-4-2-6-2-1-3 1-5 2-4 2-9 3-13 6l-7 4-59 24-70 28-42 15-11 5c-2 1-4 2-6 1z"/><path fill="#02070B" d="M189 68c0 4-4 6-5 10 0 2-2 4 0 4 2 1 4 4 7 3 2-1 5-2 6-5 0-2 2-3 4-3v4c-4 9-6 20-8 30-3 12-5 24-5 36 0 2 1 5-3 5-2-1-3-3-2-6 2-5 3-14 1-22-1 5-3 8-6 10-5-3-3-8-4-11-2 10 1 20 3 30v8l4 46c0 2 1 5-2 6-2 0-4-2-5-3-3-2-6-3-7-7 0-2-2-5 3-4-5-7-8-15-11-23-2-6-3-13-3-20-2-21-3-42 1-63 2-8 4-16 9-24 2-2 3 0 4 1l3 11v16l2 14 1-3 1-25c1-4 1-7 5-9l7-6z"/><path fill="#010509" d="M806 990c-7 0-15-1-22-3-4-1-8-4-8-9 0-4-2-4-5-4-1 0-4 1-5-1l-6-8c-1-3 4-7 8-5 2 0 4 2 7 1l3 2 7 1-4-2c-1-1-3-1-2-3l-14-16-4-6c-1-2-1-4-4-4-1 0-2-1-1-2l1-3c1-1 2 0 3 1l1 2c2 4 4 6 7 1 2-2 4-2 6 0l5 2c10 10 20 21 32 28 9 5 18 7 28 6 2 0 4-1 5 1s-1 4-2 5c-1 3-3 4-5 6-10 5-20 9-31 10z"/><path fill="#02060A" d="m848 872-27 1c-3 0-6 1-7-2s2-5 5-6l24-6a1396 1396 0 0 1 91-3c3 1 3 2 1 4l-10 4c-20 5-41 6-62 7h-15v1z"/><path fill="#030404" d="M89 979c-5 0-8 0-11-2-3-1-3-3 0-5l6-2c27-7 55-14 83-16l8-1c3-1 6 1 6 4 1 4-2 5-5 6l-18 3c-19 4-37 9-56 11l-13 2z"/><path fill="#020205" d="M839 934c-3 0-7 0-8-2s3-4 5-6c3-3 8-5 13-6a351 351 0 0 1 78-4c3 0 9 0 9 4 0 3-5 4-9 5l-67 7-21 2z"/><path fill="#01060A" d="M189 419c1 3-2 6 0 8s5-1 8-1 3 2 2 5l-5 7c-1 2-2 4-1 6 3 4 3 9 5 12 5 6 9 11 10 18 1 2 6 2 3 6-4 3-5 0-7-3l-1-1c-7 1-11-5-16-8-3-3-6-6-6-10l-2-8c-2-4-5-1-8-2-1-1-4 0-5-2l9 1c3 0 5 0 5-4 1-9 3-17 9-24z"/><path fill="#030507" d="M166 1018c9-1 11 1 11 6 1 2 0 4-3 5l-46 12c-5 1-6-4-7-7s-1-7 4-8l25-6 16-2z"/><path fill="#0A1015" d="M847 776h-14l-6-1c-3-1-5-3-5-6 1-3 4-2 6-3l36-2 5 1c3 1 5 2 5 6 0 3-3 3-5 3-7 2-14 1-22 2z"/><path fill="#07090B" d="m827 821-9-1c0-1-2-1-1-2l2-2c8-3 17-4 26-5l14-1c3 0 5 1 6 3 2 4 1 5-4 6l-34 2z"/><path fill="#080B0E" d="M908 771c-4 0-8 2-9-3 0-5 4-6 7-6 8-1 15-3 22 0 2 0 4 0 4 2s-2 2-3 3c-7 3-14 4-21 4z"/><path fill="#E1E5E8" d="M211 291c-10-2-18-8-26-13 4-2 6-8 3-13l-1-3 9 9c1 1 0 0 0 0 2 9 11 12 17 16l5 4h-7z"/><path fill="#182D3A" d="m159 176 13 25c-2 1-2-2-4-1v3c-1 1-3-2-3 1-2-1-2-3-3-5-2-12-8-20-16-28v-2l11 9c3 2 2-1 2-2z"/><path fill="#1D2023" d="M835 721c1-3 3-3 4-4 8-3 15-3 23-3 2 0 4 0 4 2s-1 3-2 3c-10 2-19 3-29 2z"/><path fill="#27282B" d="M882 817c2-7 2-7 9-6l9 2c-5 3-12 3-18 4z"/><path fill="#213648" d="M173 97c-2-5-1-10-1-16 0-4-3-8-4-12h-2l2-3 3-2c2 1 2 2 2 3v30z"/><path fill="#BAC0BC" d="m826 1052-8-5-5-4 14-2c-3 3-3 7-1 11z"/><path fill="#373E3F" d="M237 1008c-4 5 1 7 3 10 2 2 6 3 1 6 0-4-3-5-5-7-6-5-6-5 1-9z"/><path fill="#8F938E" d="M227 1298c6 1 10-2 14-5l3-1c-3 4-6 8-12 8-2-2-4 0-6-2h1z"/><path fill="#000F13" d="M4 1651v44l-1-28 1-16zM774 664l11-11c-3 5-7 8-11 11z"/><path fill="#686C64" d="M653 141c-2-1-3-2-5-1l-4-3 2 1c5-4 6 1 7 3z"/><path fill="#000F13" d="M223 799h17-17zM275 826l4-2 4 1c1 2 0 3-1 4 0-4-1-5-4-4l-3 1z"/><path fill="#9DA6AB" d="m197 411-3 1c0-2-3-1-4-3h6c2 0 1 1 1 2z"/><path fill="#000F13" d="M227 1298h-1c-1-4 0-7 1-10v10zM768 783c-1-1-2-2 0-3 2 0 4 0 5 3-2 1-4-5-5 0zM786 851v-10c1 3 2 6 0 10zM786 785h10c-3 2-7 1-10 0zM836 1054c-2 1-5 4-7 0h7zM248 819c-1 2-2 4 0 6-5-3-5-3 0-6z"/><path fill="#FEFEFE" d="M266 1197c5-12 10-25 17-36 2-4 3-7 7-11-3 3-4 7-8 8l-5 4c-1 2-3 3-5 2-3-2-2-5-1-7 14-23 31-43 47-66-5 2-9 4-12 7-10 8-20 18-31 25-10 6-20 11-31 15-3 1-6 2-10 1 6-8 15-12 21-19l13-13 4-6c-2 1-4 4-7 3l-2-1c-4-1-4-3-3-6l9-13 3-4c8-11 14-23 21-35l10-14 3-4c-6 0-10 4-15 6-10 7-22 13-34 18l-15 3c25-24 50-46 72-71-13 7-24 16-39 20h-3c-1-1 0-2 1-3l2-3c3-5 8-9 12-13l13-16 36-53c5-7 10-13 17-18 13-7 21-20 27-33 2-1 3 1 4 2l2 4c2 3 3 4 6 1 4-2 8-2 12-5 1-1 3-1 2 2-6 11-15 21-23 31 17-5 29-16 39-29l1-2c6-6 12-5 15 3l2 8 1 3c2 1 2-1 3-2s1-2 3-2c1 0 2 0 1 1-5 12-14 20-24 29 6 0 11-2 15-5 15-9 26-21 34-36l4-7 2-5c1-1 1-3 4-3 2 0 3 2 4 4l1 8 1 1c0 3 0 6 3 6 3 1 6-1 7-5 0-1 1-2 3-2 2-1 2 0 1 2-4 10-6 21-13 30 5 0 8-3 11-5 12-12 20-27 26-43l5-14c3 0 2 2 2 4l-2 4 1 1v-1c1-5 1-12 6-16 3-2 6-2 8 2 1 12-1 24-4 37 3-1 4-3 5-4 8-13 12-27 16-42l3-9c4-5 6-5 9 0 2 3 3 7 8 5 7-9 12-20 17-32l2-5c4-7 8-13 10-20 0-1 1-3 3-3 4-1 6 0 8 4 7 15 17 29 24 44l2 4c0 3-1 5-5 4l-9-4c2 11 7 21 9 32 1 5 2 10 1 15 0 1 1 3-1 4s-4-1-5-2l-2-3c-4-4-6-11-11-15l-3-4c3 9 7 18 12 26 5 10 12 18 18 27l3 6c0 3-1 5-3 7-2 1-4 0-5-2-3-2-7-5-9-9l-3-4c-9-9-15-19-23-29 3 15 11 28 19 40 3 4 6 8 7 12 0 2 1 4-1 6-3 1-4-1-6-2l-25-29c4 10 7 20 15 29 5 5 7 12 9 19v5c-2 1-3 0-5-1-6-3-10-8-14-13l-2-2c3 8 13 23 25 35 3 2 5 5 6 8 0 4-3 4-6 3-8-3-15-8-22-13-11-10-21-21-33-30l-2-1c11 30 15 62 27 91 0 2 0 4-2 5-2 2-4 0-6-1l-6-6c-3-1-5-4-6-6-8-14-18-27-30-39l5 11 5 13c6 9 8 18 11 27 3 6 2 8-3 9h-1l-6-6-4-6-15-23c-4 6-1 11 0 17 2 7 5 15 9 22l2 6 2 11c0 2-1 5-3 5-2 1-3-1-4-2-10-14-22-26-32-39l-10-14c1 10 6 18 11 26l7 10-1 4c0 5-2 6-7 4-9-4-15-11-20-19l-7-8c-3-2-5-6-6-9 0-3-1-6-4-9-3 18-5 36-1 53l4 17 3 15v2c1 7-1 14-1 20 0 4-1 7-4 10-4 5-7 10-9 17 0 2-3 3-5 3-4 0-5-2-6-5l-3-19c0-8-2-16-4-20-6 6-6 6-11 2l-5 54v4c-2 11-4 21-9 31-4 9-9 17-18 21l-1 2c-1 1-2 2-3 1l-2-3 3-12 2-7 1-2 2-6c-6 4-12 10-16 17l-4 7c-5 7-7 15-10 23l-8 17-8 4c-3-1-1-3-1-4l3-21c2-13 7-25 10-37-4 4-6 10-11 15l-7 7c-1 2-3 4-5 2-3-1-2-3-1-5l2-6c4-14 8-28 10-41-12 17-24 37-36 57l-6 7c-2 1-3 0-3-2 2-17 6-34 10-51l7-24c-14 20-23 43-31 66l-8 20c-3 5-5 11-9 14h-5v-4c4-9 4-18 5-27 2-11 3-22 7-32 3-7 3-15 7-22l-5 6c-5 7-10 14-16 19-8 8-13 17-20 26-4-1-4-1-3-8zM411 1291l1 10c3 5 1 10 2 15l-1 35-1 9v5c2 2 1 4 1 5l-1 24v20l-1 24v14c1 2 2 6-2 8l-26 11c-5 2-5 2-6-3l-1-60-1-20-2 2c-7 17-17 32-24 48l-5 13c0 1 0 3-2 3-1 1-2-1-2-2-9-12-18-25-28-36a701 701 0 0 0-3 85l-33 15 1-38c0-43 2-86 0-129 0-3 1-5 5-6 7-2 15-4 21-9 3-2 3 0 4 1 7 8 13 18 19 27l15 23 7-13 29-62c0-2 2-4 4-4 9-4 18-8 27-14l3-1z"/><path fill="#FDFEFE" d="M141 1565c2-17 5-33 10-49 11-43 25-85 34-129 1-3 3-5 6-6l22-10c3-2 5-1 5 2l10 30 31 80 12 31c0 2 0 4-2 4l-30 12c-2 1-3-1-3-3l-4-18c-1-6-2-7-8-4-11 4-21 9-32 12-8 3-12 8-13 16l-4 19c-1 3-2 5-6 7l-25 9c-3 1-3 0-3-3z"/><path fill="#FEFEFE" d="M478 1266c3 0 5-3 7-4 3-2 6-2 7 2l17 45 17 43 15 39 4 9c3 6 1 10-5 11l-4 1c-9 1-17 2-24 7-2 2-3 1-3-1l-4-23c0-4-4-3-6-2-14 5-27 11-41 15-3 2-3 4-4 6-3 8-4 17-5 26a739 739 0 0 0-23 14c-3 0-5 5-9 1-3-4-2-7-1-11a468 468 0 0 1 15-54c4-6 5-12 7-18l10-34v-7l8-34 2-3c3-5 3-11 4-17 1-4 4-4 6-5 2-2 5-1 6-4l4-2zM82 1555l31-14 21-8c3-1 4-1 4 2v31c0 3-1 5-4 6l-82 34c-3 2-3 0-3-3v-120l-1-44c0-4 1-6 5-7l25-10c4-1 5-1 5 3v123l-1 7z"/><path fill="#9E9C9A" d="m416 1202 10-9c6-8 9-17 12-27l4-16c1-2 3-3 5-2 8 3 14 0 21-3 4-2 7-3 11-3 6 1 9-4 12-7 1-1 2-3 3-2s2 1 1 3c-2 3 0 6 1 9 2 11 4 22 9 32l1 3 2 6c1 2 0 3-2 4l-23 9c-3 1-7 2-10-2-1-2-2 0-3 2 0 2-2 5-4 6-2 0-4 1-5-1l-7-17v15c0 4-2 7-5 9-8 5-16 8-24 11-4 2-3-1-4-3l-2-16c0-1-1-3-3-1z"/><path fill="#010304" d="M431 1390c-2 14-7 27-10 40-2 9-5 16-4 25 3 4 1 7-4 8-3 2-5 1-4-3 2-3 1-6 1-9-1-15 0-30 1-45l1-10v-31l5-5c2 5 4 10 3 15 0 2 0 6 3 7 3 0 3-4 3-6l4-8c3-4 5-8 5-13l1-4 3-2c2 1 1 2 1 4-1 6-3 11-3 17 0 2-2 3-3 5-2 4-3 10-3 15z"/><path fill="#020202" d="M373 1195c5-6 8-13 14-18-4 13-9 26-11 40l-4 19-3 4c0 6-5 7-9 6h-8c-2 0-4-1-4-4v-1c1-6 4-10 7-15l5-10c5-7 7-15 13-21z"/><path fill="#7C7D7D" d="M296 1239c4-4 5-9 8-13 1-2 3-2 5-1 3 0 6-1 8-3 2-4 6-5 8-8 1-2 2-2 3 1l-5 10c-2 2-4 3-4 5l-2 1c-4-3-6 0-7 2-4 4-7 9-8 14-2 8-3 15-7 22l-3 6-4 2-1-4v-5l8-25 1-4z"/><path fill="#949493" d="m417 1181-1 2c-5 12-9 23-10 36 0 5-4 9-5 14-6 3-14 4-21 6 0-7 5-11 7-17 3 4 6 5 9 0 4-6 7-13 8-21 1-2 0-4-1-5-2-2-3 1-4 2h-2l4-7c3-3 5-7 10-8 2 0 2-2 3-4 0-1 1-3 3-2v4z"/><path fill="#151D25" d="M295 1269c3-9 4-19 8-28 2-5 6-11 12-13 4-1 1 2 2 3v4l-6 25c0 2-1 4-3 4-4-3-8-2-11 3l-2 2z"/><path fill="#E0D7CA" d="M308 1264c4-10 5-21 8-31l1-2 1-1 4-5 5-10h1c0 1 1 2 2 1v3c-5 14-8 29-14 42l-2 7-1 1c-2 1-4 3-5 1-2-1-1-4 0-6z"/><path fill="#C0BCBC" d="M401 1233c0-1-3 0-2-1 5-7 6-15 7-23 2-9 5-18 10-26-1 6-4 12-4 18 0 3 0 4 3 3l-3 14c-1 7-4 12-11 15z"/><path fill="#B7B4B3" d="M314 1268c-3-2-1-4 1-6 11-4 21-11 29-20 1-1 2-2 4-1v1c-8 13-20 20-34 26z"/><path fill="#4B4847" d="M461 1204c4 1 7-1 8-5 0-2 0-4 2-5 2 0 3 1 4 3 2 3 5 1 8 2l-5 2c-3-1-5 0-7 2-4 4-8 4-10 1z"/><path fill="#737373" d="m369 1240 7-23c0 8-1 15-4 23v3c0 1-1 2-2 1-2-1 0-3-1-4z"/><path fill="#FEFEFE" d="M248 464c-5-3-8-9-14-14l2 7c1 1 1 3-1 4s-3 0-5-1l-4-5-8-8c-1-1-2-2-4-1-1 7 0 14 2 22-14-10-16-29-6-44 1-3 4-5 6-6l5-5 14-10 7-6c4-2 8-5 9-10l6-4c-12 1-24 2-36 0h-3c-2-3 1-3 2-3a310 310 0 0 1 54-23c1-2 0-2-1-3-3-1-2-3 0-4 3-1 7-2 8-6l5-1c6-1 12-2 19-1l9 1c14 3 28 6 42 4 1 0 2 0 3-2-22-9-43-23-67-30l13-1c5 0 5-2 3-6s-6-7-10-10c-6-4-12-8-17-17 15 9 31 8 46 5s29-2 43-1c16 1 32 6 47 12 5 1 9 4 13 8 3 1 3 3 1 5l-8 7c5 0 8-3 11-5 2-1 6-2 7-4s-3-3-4-5c-11-17-21-34-36-47-1-1-3-2-3-5l14 5 43 19c9 3 15 9 21 15l21 24 8 12 7 10c1 1 2 3 4 2s1-3 1-4c1-8 1-16 5-22 7-17 9-35 11-53 1-17 3-33-1-50-7-35-17-68-37-99v-3c21 11 44 16 66 26-2-5-6-9-15-16l-6-5-2-2c-5-8-13-13-20-19-4-3-8-8-14-10l7 7 16 17 1 2c-1 2-3 1-4 1-16-5-32-12-46-22-2-1-3-3-3-6l-4-16-2-8v-4c0-4 1-6 5-5 8 0 16 1 23 3l12 6c0-3 2-5 5-5h1c4-7 9-3 14-1l8 4c2 1 4 2 6 0v-5c2-1 2 0 3 1 14 11 28 21 40 35 9 11 18 21 25 34l2 5 10 19 3 7c1 4 0 6-3 8-3 0-4-3-5-4-6-10-10-20-17-29l-11-12-18-19c5 5 10 9 12 16 1 1 2 3 0 4l-3-1-19-13c-4-2-7-4-9-7-6-7-13-12-21-15l-7-3-1-1c-2 1 0 1 0 2 4 5 8 11 14 16 10 6 18 14 27 22 6 5 10 12 14 19l8 19c-1 3-1 6 1 8l1 3c3 6 3 6-3 9l-3-1c-5-7-12-13-19-17l-8-5 7 4c9 6 13 16 17 25 7 14 13 29 17 45 0 4-2 4-4 1-3-5-5-10-10-14l4 18 1 2c0 2 2 5-1 6s-3-3-5-5l3 21c-2 9 0 18 0 28v6c0 1-1 4-3 3-2-2-3-3-3-5-1-9-4-18-8-26-6-14-7-30-11-45-4-17-9-34-19-49l-9-12c6 18 12 36 15 55l8 64 1 7c0 1 0 3-2 3-1 1-2-1-2-2 2 13 1 25-1 38l-2 2c-4-2-3-6-2-9v-12h-1l-8 41v8c-2 3-6 2-10 4l16 5 8 3 2 1 7 8c2 3 1 5-2 5l-12 1c-2 0-3 0-2 3-1 3-3 5-7 5l-11 1 8-1h29l13 1 12 6c1 0 2 1 1 2 0 2-1 2-3 2l-13-3-10-1c3 3 1 4-2 4h-16l-27-1c-9 0-19-1-27 1 16-3 33 0 50 6 6 2 12 4 17 8 1 4-1 4-4 5-6 0-11-3-17-4l-17-3 26 13c7 3 15 7 21 12l2 3c1 1 2 2 1 3-1 2-3 1-4 0l-23-8c-6-2-12-4-19-4-1 0-4-1-3 2 1 7 4 13 11 15l6 5c5 5 9 10 15 13l10 5c1 1 3 2 3 4l-3 2c-10 3-19 3-28 1l-16-6c-1 0-3-1-2-2 0-2 2-2 3-2l18 1c-9-7-19-6-30-6h-2c-2 0-6 1-6-2s3-3 5-4c3-1 7-1 7-3 0-3-4-3-7-4-8-2-17-2-26 0-17 3-33 9-49 17l-6 2c-4 0-6 2-9 4-1 1-2 2-3 1v-4l10-10c14-10 30-16 47-21l10-1c-10-1-21 0-31 5-18 8-37 18-49 35-1 2-2 4-5 3-2 0-2-3-2-5 1-7 2-15 6-21l7-8-6 7-16 22-2 8c0 2 0 3-2 4-3 0-2-2-2-4-1-5-4-8-9-7-3 2-6 5-4 9 2 5 6 6 11 5l1 3c-1 3-2 5-5 6-7 0-14 1-20-2 7 6 16 10 24 16l-8-7c-2-1-5-2-4-5 1-2 4 0 6 1 5 2 11 2 16 6 4 2 8 2 9 7 4 4 9 3 14 1l3-2h3l-1 3-5 6c-2 2-1 4 2 4 9-2 15 3 21 8 9 7 20 11 31 15 8 3 17 1 26 1 3 0 6 0 9 2 1 2 3 3 1 5-5 6-13 4-19 5 8 3 16 2 24-1l14-5 3-1h3c3 0 5 0 7 3 4 5 4 7-2 9l-6 2c-12 3-24 8-38 7-15-2-29-10-42-18l-9-6 13 9c2 2 4 3 4 5l1 2c6 4 11 11 20 13h1l3 4c-1 2-3 2-5 1-7-2-15-4-22-8l-2 1c3 6 5 11 9 16l4 6c2 3 5 4 6 7 3 6 9 6 13 9l2 2c3 2 5 5 5 9-1 3-4 3-7 3-7 2-12-1-18-6l-8-5-5-2c7 8 16 14 23 21 7 5 10 12 17 17 1 1 2 2 1 4 0 2-2 2-4 2-4-1-8-2-11-5l-18-11-7-6 2 2c1 2 3 3 2 5-1 3-4 3-6 3l-14-2c-3-1-4 1-3 4l2 12-1 3-2-2-6-22c-11-33-28-62-48-89-22-30-49-54-82-72-10-5-20-7-30-9-2-1-5-1-6-3-3-2-1-4 1-5 4-2 7-6 12-7l-14 5c-2 2-4 2-6-1-1 3 3 6-2 7z"/><path fill="#FEFEFE" d="M192 110c2-11 4-22 9-33 2-2 3-5 7-7v20c0 1 0 2 2 3l3-3 6-11c6-10 12-20 23-26l9-3h4v5c-2 2-4 5-5 9l7-4c3-1 5-4 8-2 3 3 1 6 0 9-17 31-14 62-2 94 12 31 25 61 42 89 1 3 4 6 2 9-2 1-5-2-8-4-9-6-14-16-20-25-6-5-8-13-12-20l-8-14 8 15 1 2c-3 3-1 6-1 9l2 12c3 11 5 22 5 34a433 433 0 0 1-26-66c-6-23-8-46-12-69-1-12-6-23-5-36 0-2-1 1-2 0l-6 23v22c1 1 2 3 0 4-2 2-3 0-5-1-1-4-3-9-3-14-1-3 0-7-2-11-1 0-2-4-3 0l-3 13-1 16c0 2-1 5-3 7-4 5-6 11-8 16l-3 7c-2 5-5 9-6 14 0 2-1 3-2 3-2 0-2-1-3-2l-3-18-2-16c0-10-4-19-4-29 0-4 0-8 3-11 1 5 0 10 3 14l5 12 2 5 2 3c2-15 2-30 5-44zM513 239c-27-8-54-10-82-8l-36 3c-8 1-15 2-22 6s-16 4-23 8l-9 4c0-5 4-8 8-10 24-16 51-25 79-29 26-3 52-3 79 1 4 1 6 3 6 7v18z"/><path fill="#F1F3F2" d="M176 160c2 5 2 10 2 15 0 7 4 13 6 21 1-10 7-16 10-24 2-6 3-13 8-17 2-1 2-4 2-6-1-6 2-11 3-16v18l1 7c1 3 1 6-1 9-2 4-4 4-7 1h-2v12c-1 4 0 8-4 11-2 1-1 4 0 6 3 5 3 11 5 16v10l-1 2c0 1-2 2-1 4 2 6 6 10 9 15 1 1 3 3 1 4-2 2-3 0-4 0l-4-2c-13-9-23-20-30-34-1-5-1-5 5-3l4 3h2v-4c-3-16-3-32-4-48z"/><path fill="#ECEEEE" d="M622 158c5-3 3-7 1-11l-1-4 15 27 2 3a140 140 0 0 1 11 63c-3-5-4-10-6-16l-8-27c-2-9-6-18-11-25-1-3-4-6-3-10z"/><path fill="#CDD7D7" d="M529 50c-2 1-4-1-6-1-3-1-6-2-6 3l-1 1c-4-1-6 1-5 5l-3 1c-3-4-7-5-10-8 3-2 7 0 11-1-10-2-18-7-27-10l-4-2h10l22 2c7 2 14 5 19 10z"/><path fill="#CECFD1" d="M218 145c4 1 6 0 4-5-1-4 1-8-2-12-1-2 2-4 2-6l2-15 5-10c-4 17 1 34 1 52-2-11-4-22-4-33-4 18-1 35 0 54-4-8-6-17-8-25z"/><path fill="#D5D9DA" d="M314 343c-8 1-16-2-24 0-3 1-8 0-9 5-1 3-5 2-7 3l-2 2 2 1h3c1 2-1 3-3 3 0-2-3-1-4-2-6 0-11-2-17-6 13 0 24-6 36-7 8-1 17-1 25 1z"/><path fill="#D8DAD8" d="M197 223c3-8-1-16-4-23-1-5-4-9 2-13 3-1 1-7 1-11 1-3 0-7 2-10 2 3 0 6 0 9l2 9 2 7c1 4 1 7-2 10v18c0 2 0 4-3 4z"/><path fill="#252826" d="M265 67c0-3 1-6-1-8s-5 2-7 3l-4 2c-2 1-4 3-5 1-1-1 1-3 2-5l4-6c0-1 2-2 1-3h-4l-9 2c4-4 9-5 14-5 2 0 12 11 12 13s0 5-3 6z"/><path fill="#989D9E" d="M197 223c4-5 2-11 1-16 0-3-1-5 1-7 4-2 3-6 3-9l2 5 4 11 2 6 2 5-1 3c-2 0-2-1-3-2-3-3-4-6-6-10v13c1 2 2 4 0 5-1 1-2-1-3-2h-2v-2z"/><path fill="#2D3133" d="M197 225c2-2 3 1 5 1-2-6-2-12-2-20 4 4 6 8 8 13-2-1-2 1-2 2-1 5 3 10 2 16-4-2-6-6-8-9s-2-1-3 1c-2-1-1-2 0-4z"/><path fill="#B5B9BE" d="M211 291h6l-13-8c-6-3-8-6-8-12 10 10 22 16 33 22-6 0-12 0-18-2z"/><path fill="#1E292B" d="M218 383c15 2 29-1 44-1l-11 7c-2 1-2 4-5 3l1-3-1-2h-1c-1 2-3 2-4 1-6-4-13-2-20-4l-3-1z"/><path fill="#A4AFAD" d="m482 40 8 2c5 3 10 5 15 5l4 2c2 0 3 1 3 2-1 2-2 1-3 1l-11-1-19-3c-9-1-9 0-10 8-2-8-1-10 8-9l21 1c-5-4-12-3-16-8z"/><path fill="#4A4C4A" d="m539 110 1 2c-5-1-7-5-11-8-1 2 3 4 0 5-1 1-3 0-5-1h4l-18-19c1-3 1-3 3-2l19 16 7 7z"/><path fill="#C7C8CA" d="M200 184c-3-3-2-6-2-10v-8c2-4 2-1 3 0 0 2 0 4 2 3 2 0 3-1 3-3l2-8 3 15c1 2 1 3-1 3-2 2-5 2-6-1l-5-7c-1 6 1 11 1 16z"/><path fill="#B5B7BD" d="m269 234-4-19c-1-2 2-1 2-3h1l10 20 6 11c-7-6-10-14-16-21 0 4 2 8 1 12z"/><path fill="#C3C8C7" d="M246 392c2-1 3-3 5-3 1 5-3 6-6 8l-22 17h-2c-1-2 2-3 3-4l4-4c6-5 13-8 18-14z"/><path fill="#8C8E8E" d="M204 175c3 1 6 3 7-2 3 4 2 9 4 13-1 2-1 3-2 2l-4-5-5-8z"/><path fill="#5B6A6B" d="m522 312-5 22v-18c0-3 2-4 5-4z"/><path fill="#5A5D65" d="M278 232c-4-4-6-10-8-15-1-2-1-4-3-5 0-1-1-2 1-2l11 20-1 2z"/><path fill="#A8AEB4" d="m199 246 3 1c1 0 3 2 4 1 2-1-1-3 0-4l9 10c-6-1-11-4-16-8z"/><path fill="#6B8792" d="M174 209c-2 1-6-2-5 3-3-2-4-5-4-8v-2l3 1c1 4 4 4 6 6z"/><path fill="#41464A" d="m209 183 4 4c2 1 2 0 2-1l1 2c1 2 3 5 1 6s-3-3-4-4c-1-2-4-4-4-7z"/><path fill="#798EA0" d="M546 50c-5-1-1 4-3 4-1-4-5-7-4-12l7 8z"/><path fill="#ECEEEE" d="M622 143c-4-6-8-12-9-19 4 6 7 12 9 19z"/><path fill="#2D3133" d="m208 219 2 1c2 0 1-1 1-2l-1-5c3 3 2 7 3 10l-1 2-1-1c-1-2-3-3-3-5zM208 207l-4-11c2 4 4 7 4 11z"/><path fill="#CECFD1" d="M213 120c2 4 2 7 2 11-2-3-2-7-2-11z"/><path fill="#4A4C4A" d="M540 112c3 1 4 3 6 5-3 0-4-3-6-5z"/><path fill="#A09E9C" d="m529 1034-6-9c-1-2-4-4-2-6 3-3 5 0 7 2 9 7 17 17 24 26l3 4c1 1 2 4 4 3s1-3 2-5l-3-12-2-6c-2-5-1-10-1-16 0-2 0-5 3-5 2-1 3 1 5 3l1 2 4 5 5 6c6 1 7 0 6-5l-2-5c-2-4-4-8-3-14 1-8-4-14-10-19l-4-5-6-14c7 4 11 10 16 15l17 25v2c5 7 4 15 8 23 6 12 15 23 24 33 12 12 20 27 29 42l1 2 8 16c2 2 1 3-1 5-6 4-13 6-20 9l-27 13c-3 1-5 2-8 0-7-4-10-10-14-17l-7-15c-1-4-3-6-5-8l-2-5v-1l-1 1 1 4 14 40v5c-1 4-2 4-6 3-8-3-14-8-21-12-2-2-5-3-7 0l-7 1c-9 1-17 3-25 8l-4 4c0 1-1 2-3 1l-13-17c4-2 9-4 11-9 3-6 7-12 13-17 3-3 3-6 0-9-3-6-7-10-9-17-1-3-4-3-6-6-1-1-2-3 0-5s4 0 6 1l10 8 15 16c2-2 0-4-1-6-4-10-10-19-16-28l-1-3c0-1-1-3 1-4h5c3 2 6 3 9 2 3 0 6 2 8 3 2 0 4 1 5-1s0-3-2-4c-1-2-3-4-2-7 1-1 2-1 1-3-3-8-8-15-18-18h-1z"/><path fill="#FEFEFE" d="M594 1383c-1 2-4 2-6 4-3 3-8 3-11 5-4 2-8 4-12 4l-2 1c-1 1-2 0-2-1l-1-6v-41l-1-24c-1-12 2-24 2-37v-5l1-3c0-7-3-9-9-5-10 6-21 8-31 12-4 2-4 0-3-3 2-4 0-9 1-13v-10c-2-6-1-8 5-11l38-16c7-2 14-5 20-9l3-2 30-12 9-5c2-1 4 0 4 3v27c0 11 0 11-10 14l-14 5c-4 3-9 4-12 9 3 31 2 62 2 93l1 19c-1 2 0 5-2 7z"/><path fill="#A09B97" d="M682 1062c6 9 15 15 23 23-6 1-10 0-19-5l-16-11-15-13c8 16 18 32 33 42-1 2-2 1-3 1-6-1-11-4-17-7l-4-1-13-8c-19-17-36-36-51-56-1-1-3-2-3-4l1-2c3-1 4 3 5 4s2 3 4 2 2-3 1-5l-2-6c0-2 1-3 3-3 8 1 11-5 16-10s7-13 10-19l1-3c0-2-1-5 3-5 2 1 5 2 5 6l-4-2c-1 1 0 2 1 3l18 39 6 9c7 10 10 22 17 31z"/><path fill="#E20025" d="M628 1208c-1-2-2-1-3-1l-9 5c-2 0-3-2-3-4l4-39 2-3c5-4 11-7 18-10l26-10 15-7c31-14 63-24 94-38l8-2c1 1-1 2-2 3l-53 22-18 7c-6 2-8 6-8 11v19l3 2c4 3 3 6-2 8l-7 5c-2 1 1 3 0 4-5 4-12 6-18 9l-29 12c-3 1-5 3-5 7l1 33-1 5c-2 1-3 0-4-2v-6c2-11-5-20-7-29l-2-1z"/><path fill="#080507" d="M594 1383c-1-35 0-71-2-106 0-5-2-10 0-15 4-1 5 2 6 4 4 10 5 20 5 30 1 12 1 24 4 36 1 7 0 14 2 22l3 12c3 10 5 20 5 31l1 19c0 2-1 4 1 5h2l3-2 12-4 1-1 19-7 39-15 82-32 35-14 59-22c13-4 25-10 38-16l90-34 44-17c3-1 4-2 4-5l1-15c2-69 0-137 0-206v-30c0-5-1-5-6-4l-8 3c-1 1-3 2-5 0 2-3 6-3 9-4l7-4c1-1 2-2 4-1s3 3 3 5c-2 9-1 18-1 27v1c5 11 0 23 1 34 3 19 2 37 2 55l-1 26v40c-1 11 2 22-1 33l-1 6v33c0 7-2 9-9 10l-2 1c-7 5-18 5-25 10-6 4-12 4-17 6-6 2-12 3-15 8l-4 1c-3 1-6 1-8 3-5 5-10 6-16 5-3 0-6 0-7 3v1c-6 1-10 7-16 6-3-1-6 2-9 4l-7 3c-11 1-20 8-30 12l-13 4c-3 0-6 0-7 4-1 2-3 2-5 2-8 1-15 2-21 8h-1c-7 1-12 8-20 6h-2c-5 5-12 7-19 8-6 1-13 3-17 9l-4 2c-7 0-12 4-17 7v1c-10 1-17 6-27 8l-10 4a75 75 0 0 1-23 8c-2 6-7 6-12 6l-2 1c-6 4-13 4-19 5-5 1-9 2-11 7-5-3-7 4-12 2-1 0-3 0-5 2-3 2-6 5-10 3-3-1-5 3-8 4-2 1-3 2-5 0s-4-4-3-7c3-8 3-17 0-25l-2-7c0-2-1-3-3-4-2 0-3 1-3 3-2 3-5 4-8 4-5 0-3-4-3-6z"/><path fill="#ABACAC" d="M511 1083c4 2 7 5 8 10 1 4 5 8 7 12 3 3 3 8 0 11-7 4-10 11-13 17-3 5-7 7-12 8l-6-5c-2-3-1-2-3-1-3 4-5 9-11 8-9-1-15 6-24 7-3 1-6 2-9 0h-6v-4c2-7 2-15 3-23 0-2 0-4 3-5s5 1 6 3c2 7 8 10 13 14 7 3 11 2 13-5l7-17c4-9 4-19 3-29v-9c0-2 0-3 2-4 2 0 3 1 3 3l2 5 14 22c2 2 3 7 6 5 3-1 1-5 0-8l-5-10c-1-2-2-3-1-5z"/><path fill="#8F8C89" d="m514 1158 10-8c7-4 15-5 24-6 1 0 3 0 4-2 3-3 6-2 8 0 4 3 8 4 10 8l4 2c3 0 5 1 8 3 2 2 4 2 4-2 2 0 2 2 1 3l-1 1c-3 1-7 2-10 1-2-1-3 0-5 1l-7 5c-5 2-9 2-14-1-1-1-3-3-5 1-4 9-4 9-16 8l-3-2-3-2-6-6-3-4z"/><path fill="#000F13" d="m561 1283 1 20-1 90c0 2-1 4 2 4-1 1-2 3-3 0l-1-7v-55c0-2 1-6-2-6s-3 4-4 6v5c0 2-1 4-3 4-2 1-4 0-5-2l-8-16c-1-5-2-10 1-14 2-2 1-4 1-6 0-7 3-11 8-13 3-2 6-1 6 1 1 4 5 5 7 9l1-20z"/><path fill="#030303" d="M598 1023c15 19 30 38 49 54l17 14c-3 3-8 3-12 2s-3 0-3 3l2 5c1 2 0 4-2 5l-21-31-13-15c-9-9-16-19-21-31l-1-4c0-2-1-4 2-5 2-1 2 2 3 3zM587 1156l-1-3c-1-8-4-15-7-22l-7-24c0-1 0-3 2-3l2 4 5 8c4 9 8 18 14 26l7 6c2 4 4 2 6 0 15-8 31-16 48-21-5 7-9 16-20 16-3 0-4 3-6 4l-18 7c-2 1-5 2-8 0-2-1-4 1-6 1-4 2-7 1-11 1z"/><path fill="#000F13" d="m526 1170 3 1c4 2 8 1 12 0 3 0 5-2 5-6 0-2 2-3 4-2 6 4 11 2 16-1 2-1 4-3 7-1-2 3-6 4-8 6-2 1-3 2-3 4 1 2 3 1 4 1h4c2 0 3 0 3 2 1 1-1 1-2 2l-2 2c0 3-2 5-5 7-4 2-8 2-12 1h-4c-4 1-6 1-9-3-1-2-4-1-6-1-5 0-8-2-7-8v-4z"/><path fill="#5D0419" d="M663 1146c-7 5-15 7-23 10l-20 10c-4 2-4 6-5 10 0 10-2 11-11 11l-12 1c-5 1-6 2-6 7v29l-3 1-2-24c0-7 0-16 7-21 1-2 3-3 5-3 7-2 13-6 20-9l18-10c2-2 5-2 7-3l15-6c3-1 4-3 7-3h3z"/><path fill="#010304" d="M458 1294c-1 9-4 17-6 25l-4 16c-2 1-4 3-4 6 0 1 0 3-2 2l-1-2 4-22 5-22c1-6 2-10 5-14 3 3 1 8 3 11zM412 1316v-15c5-1 6 1 6 6l2 13c1 2 2 5 1 7-3 7-1 14-3 22-1 3-2 7-5 9l-1-18v-24z"/><path fill="#000F13" d="M613 1168c-3 4-7 6-12 7l-13 5h-4c-1-1-2-2-1-3l3-2c6-2 11-11 19-8l8 1z"/><path fill="#5B5757" d="M573 1161c-4 0-7 3-11 4-5 2-10 2-14-2 0 9-11 13-19 8h5c8 0 8 0 10-8 0-4 1-4 4-3 4 3 9 5 14 3l9-6c2-1 3-2 5-1 3 2 7 0 10 1l-3 1c-3 1-7 1-10 3z"/><path fill="#080507" d="M565 1396c7-4 15-7 23-9 3 3 0 6-3 7-6 3-13 3-19 3l-1-1z"/><path fill="#000F13" d="m536 1412 3-1c6-2 7-4 6-11 5 2 4 6 5 10l-2 2c-4-2-8 1-12 0zM412 1316c2 2 1 3 1 5v37l-1 2v-44z"/><path fill="#030303" d="M663 1146h-2c5-4 11-5 17-7l-15 7z"/><path fill="#010304" d="m478 1266-4 2c-2-2 0-3 1-3 2-1 2 0 3 1z"/><path fill="#000F13" d="M506 1190c5-3 0-7 0-10 3 2 3 5 3 7 0 3-1 3-3 3zM520 1271c0 4 1 9-1 13 1-4-1-9 1-13zM740 1112c-1 1-1 2-3 2l-2-2 2-1 3 1zM573 1161c3-3 6-3 10-3-3 2-7 2-10 3z"/><path fill="#030303" d="M660 1146c-2 2-4 3-7 3 2-1 3-5 7-3z"/><path fill="#000F13" d="M517 1162c3 1 5 3 6 6-3-1-5-3-6-6zM468 1272c-2 2-5 2-6 4 0-4 3-4 6-4z"/><path fill="#030303" d="M638 1155c-2 1-4 3-7 3 1-3 4-3 7-3z"/><path fill="#01080C" d="M549 319c1-12 3-24 1-37v-7c2 2 1 4 4 6-5-45-8-90-26-132l1-1 11 13c10 14 16 29 20 46 4 24 10 48 19 71 1 3 0 7 2 10 4 8 5 17 4 24 0-14 2-30 1-46l-2-10c0-6-2-13-1-20 9 6 21 53 21 78-1-14 1-29-1-44 0-12-3-24-5-36-2-3-1-7-2-11-7-20-13-40-24-58-3-5-7-7-10-11 0-1 1-2 2-1 9 5 16 11 21 19a3227 3227 0 0 1 18 30l-3-15-4-14v-4l3 1 16 17a305 305 0 0 1 31 82c6 35 3 68-6 98 7-15 10-34 13-54 0-1 0-3 2-3 0 3-1 6 1 9 2 2 1 4 0 6 0 2-2 3 1 4 2 0 3 0 4-2l2-10c0-9 4-18 6-27l3-3c2-3 3-5-1-7-2-2-2-6 0-8 3-4 1-6-1-8-1-2-3-2-2-4 2-2 4-3 6-1 2 1 3 3 5 1 1-1 3 0 4 1 3 2 5 6 5 10-1 6 1 8 7 8 2 0 2 2 3 3l7 16c2 6 3 6 7 2 4-3 5-7 5-12 2 0 2 3 3 4l3 7c4 2 7-2 11-2l2 1c-1 6 3 6 6 7 5 1 7 3 9 8l2 2c4 1 2 3 2 5-6-2-12 0-18 1-10 2-10 2-10 12l2 42-1 22c-1 2-1 5-3 6-1 2-2 3-3 2-6-4-10 0-15 1l-2 2a90 90 0 0 0-33 39c-7 17-12 35-15 54-3 14-5 29-6 43l-1 14v8c0 14 2 27 4 40 0 3 0 6 5 6 5-1 8-3 7-8-3-16-1-33-2-50 1-5 2-10 1-15 5-26 9-52 17-77 6-22 21-38 40-51 1-1 3-3 6-2-1 7 3 10 9 11l4 2c0 2-2 2-3 3-3 2-5 4-1 7-1 3-5 5-7 7l-6 6-3 3-3 5c-4 4-7 9-8 15-4 16-9 31-11 47l-2 4c-2 7-5 13-3 20v19c1 5 0 9 2 14 1 4-1 8-2 12 0 3 0 7 2 10 2 6 2 12-1 17-14 12-30 18-46 26-15 6-28 14-42 19l-20 7c-2 1-4 2-6 0-3-2-3-6-5-8s-3-3-6-3l-2-2c-8-1-14-6-20-10-1-1-3-2-2-4s3-3 5-2c5 2 11 2 15 6 2 1 4 3 5 1 2-2 0-4-2-5l-14-11-21-15-7-4c-1-2-4-3-3-5 1-3 4-1 6 0l18 9 11 4 3 1 3-1c1-1 0-2-1-3l-11-9c-4-1-7-5-10-7l-2-2c-1-1-2-2-1-3 1-2 2-1 4-1l12 2c2 0 4 1 5-1s0-5-2-6c-3-2-6-2-9-2l-11-1c-2 0-4 0-5-2 0-3 3-3 5-4 5-1 11-4 17-4-7-1-13 3-20 2-2-4-1-8-1-12l11-12 3-5c6-5 9-11 12-19l-7 6-19 14-2-2c3-8 9-14 14-21 4-2 5-7 9-9-5 1-10 4-15 7l-17 13c-4 2-8 6-12 7l-3-2 2-3c8-5 13-12 19-20l2-2 10-5c4-2 8-5 12-5-4-1-8 1-12 4-3 2-5 1-8 0-5-3-5-3-8 3-7 15-18 26-34 33-8 4-18 5-27 3-1 0-3 1-4-1-15-4-27-12-40-21-2-2-4-3-7-1h-3c-2 0-5 0-6-2s1-3 3-4l6-8c-7 4-14 9-21 1-1-2 2-1 2-3l-3-2c-5-5-12-4-18-6l-4-3c-2-2-1-3 1-3l5-5c1-2 0-5 3-7l2-2c-2-7 2-11 5-16l13-17c1 0 2 1 1 2-5 8-7 17-6 27 24-27 51-46 89-44-14 2-26 7-39 12-12 5-24 12-32 23 25-10 49-23 78-25 9 0 18 0 26 6-4 5-11 4-16 7 4 2 8 2 12 2 11-2 21 0 30 8-9 0-17-2-26-1 22 10 38 12 50 5-11-5-22-10-29-20 0-3 0-4 3-3l9 3 13 8 4 3-3-2c-8-9-19-16-29-21-5-3-11-4-14-8-1-1-3-2-2-3 0-2 2-1 3-1 10 0 20 2 30 6l19 7c-15-16-35-21-53-32a122 122 0 0 1 36 7l12 3 7 2-4-2-10-6c-22-13-46-16-71-15 25-6 51-1 77-1-1-3-3-2-5-4 11-1 21 2 30 4-3-4-8-5-12-7-3-1-6-4-10-4l-15-5c-1 0-3-1-2-2l5-2c7 0 14-1 21 1h3l-27-13-8-3-20-5c4-3 8-3 12-5 8-6 10-15 11-24l2-5z"/><path fill="#FEFEFE" d="M342 651c6 3 13 5 17 11 1 1 3 2 2 3h-3c-2 0-4 1-6-1l-30-6c-5-1-10-2-15 1 3 4 3 4-1 7-8 8-18 6-27 7l-6 1c-3 1-5 2-6 6 0 3-2 7-5 9s-2 7-4 9c-3 3-7 1-11 2-6 1-12 1-17 4h-5c-11-1-21-2-31-7 9 5 19 8 29 8l14-2h16c1 0 4 0 3 3-16 5-31 11-48 8-22-3-34-20-32-42 2-13 6-24 18-32l5-5c15-5 28-14 43-19l19-7c7-4 11-11 16-17 2-3 0-8-2-12-4-9-12-16-21-21l-2-1 13 13c6 7 6 16-1 21-2 1-3 0-3-2l-4-4c-18-9-36-12-55-3-5 2-8 7-11 11l-15 20-2 1c-2 1-4-1-5-3-4-6-8-13-11-21 0 0-1 1 0 0v1c3 10 10 18 15 27 1 2 5 5 0 8-6-9-10-19-17-27-3-3-6-2-9-6-7-10-6-20 4-28l10-5c10-4 19-10 27-18 8-7 17-12 25-18 8-5 16-6 25-4 13 3 24 8 35 16 1 1 2 3 4 3a88 88 0 0 1 24 20c1 1 0 2-1 2-5 0-9-5-13-8-6-4-11-8-18-11l-4-2 4 2c7 3 13 7 19 13 5 5 11 9 18 13l3 2c1 3-1 3-3 2h-6c2 4 7 2 9 5 0 3-3 1-4 2 2 5 7 7 9 11 3 3 5 6 9 6 1 5 1 10 6 13h-11c12 5 26 6 30 21-9-3-19-4-30-1 3 2 5 1 7 2 11 1 20 6 28 12 3 2 3 4 1 5-8 0-17-1-25-3 4 2 10 1 13 5z"/><path fill="#FBFDFD" d="M257 697c2-4 2-8 6-11 2-1 2-3 3-5 2-8 3-9 11-9l21-2c4 0 6-5 10-7 2-1-3-3-3-5 4-2 8 0 12-1 12 1 23 6 31 15 4 3 8 7 13 9-2 3-4 1-5 0-7-6-16-9-23-12 10 5 19 15 33 14h12c14 0 26 4 38 12 4 2 5 5 8 8 1 1 1 2-1 3-1 0-2 1-1 2 1 2 2 1 3 1 16 0 31-4 46-9 37-10 73-24 110-37 18-4 34-11 50-19l34-16c9-4 17-9 25-15 1-1 2-3 5-2 6 7 6 12-2 16a751 751 0 0 1-83 37l-28 11-88 28c-19 6-38 12-58 16h-4c-7 0-9 2-13-7-3-9-12-12-21-14-11-3-21-3-32-2-12 1-22 5-30 13-13 13-9 35 6 46 11 7 23 8 35 6 12-1 21-5 29-13l14-12c3-3 7-4 12-5 23-4 45-11 67-17 27-8 54-19 81-28 8-2 15-7 23-9 2 0 5 0 3 4l-1 1c-3 4-7 7-12 9l-10 6-8 3a1659 1659 0 0 1-58 20l-47 14-33 8c-3 1-6-1-8 1a74 74 0 0 1-70 28c-21-2-38-18-43-39v-11l1-3c1-9 6-17 15-22 5-3 10-8 18-10-12-5-23-11-32-20l-5-2c-2-1-4 1-3 3 4 6-1 9-4 12l-1 1c-11 7-24 12-37 15-4 1-7 4-11 2z"/><path fill="#F8F9F8" d="m528 605 6 4 6 5c2 2 2 3 2 5-1 3-3 3-5 3l-8-1c-6-1-11-5-17-5 10 8 21 13 31 20 8 5 16 11 25 14 2 1 2 2-2 4l-28 11c-2 1-3 0-5-1-4-3-9-4-14-5-5 0-10 0-15-2-2-1-4-1-3 2 0 5-1 5-5 5-9-1-16-5-24-9l-5-2-4-3-5-6c-1-1-3-2-2-4l17 11 11 5c2 0 4 1 4-1 1-2-1-3-2-3-3-2-5-4-6-7s-3-4-5-5l-5-5c0-1 2 0 1-1-6-5-9-11-16-15-1-1-3-2-3-5 4 0 7 3 10 5 5 4 10 8 17 6 2 0 6 0 6-2-1-4-2-7-6-9-5-3-12-4-14-11 2-1 3 1 4 1l13 7c-8-4-16-9-23-16-1-1-2-4-4-4-5-6-8-12-10-19 2-1 4 0 5 1 7 4 15 4 22 8 1 1 2 0 2-1v-2l-2-1c-9 0-14-9-21-12-2-1-2-3-1-4 3-1 5 1 6 2 9 7 18 11 29 12h8c11-5 23-6 35-5l3 1c-3 5-8 5-12 6h-1l-1 1h1c4 1 7 4 9 7 4 6 2 10-4 12-4 2-2 3 0 4l5 4z"/><path fill="#FEFEFE" d="m272 739-3 1 2 2 9 4 13 8c-15-3-29-2-43-6 1 4 3 5 5 6l13 5c1 1 3 1 3 3-1 2-3 1-4 1l-33-5c6 6 13 9 20 14h-6c-5 0-10-2-15-4l-6-1-1-1c-1 0 0 0 0 0 2 3 2 5-2 4 1 1 3 2 2 4 0 2-2 1-4 1-10-3-17-12-27-17l5 16c-4-1-8-2-10-5-7-6-13-12-18-19-6-6-8-14-9-22 0-4 2-5 5-4l5 2c18 11 38 11 58 5l11-3c9 0 17-3 25-6l3-1c2 0 4 0 6 2s-1 4-1 6c0 4 1 8-3 10z"/><path fill="#FDFEFE" d="m343 583-29-34c-22-23-48-39-78-46l-8-1-8-1c13-12 25-21 44-18 24 3 43 15 60 31a302 302 0 0 1 89 141c0 1 1 2-1 2-11-32-26-62-46-90-9-12-17-23-28-33a70 70 0 0 0-50-19l-3 1c22 20 43 41 59 66 1 1 0 1-1 1z"/><path fill="#FDFDFD" d="m126 681 4-4c1-1 2-3-1-3-2 0-2-1-1-3 6-10 8-22 13-32 2-4 4-8 8-10 2-2 4-2 5 1l7 17c3 6 0 13 0 19l-3 25c-1 9-6 13-15 11-3-1-7-1-10-3-2-1-3-2-3-4s2-5-2-6v-2c3-3 2-5-2-6z"/><path fill="#DCDCDC" d="M456 640c2 4 6 5 8 9-2 1-3-1-5-1-3 5-3 10-1 16 7 14 19 20 35 14 3-1 6-3 10-1v1l-30 10c-11 3-22 5-33 10-2 1-3 0-3-2l-8-36a3261 3261 0 0 0-1-15c-1-4 1-4 4-4l15 3c2 0 4 0 5-2s-1-2-2-4-5-3-3-5c1-2 3 2 5 3l4 4z"/><path fill="#D9DBD9" d="M503 678v-1c1-4 5-3 8-6-7 2-12-1-17-1-3 0-6-2-8-3l-17-11-2-4 15 6c5 3 11 3 16 5 3 0 3-2 2-4-1-1-2-3-1-4h5c3 3 7 2 10 2 9 1 17 3 24 8-12 4-23 10-35 13z"/><path fill="#59605D" d="M331 696c-7 6-12 14-15 22-2-3-3 0-3 1-1 3-1 6-4 7-2-3-4-4-8-4-4 1-8 0-10-5l-4-3 19-8 21-9 4-1z"/><path fill="#979795" d="M201 582c14-7 28-8 42-3l12 4c4 2 8 3 7 8l2 1c-3 5-7 5-12 4l-16-8c-4-3-8-4-12-8-4-2-9 0-13 2l-8 2-2-2z"/><path fill="#BCB7B4" d="m203 583 15-5c4 0 7-1 9 3s6 4 9 5c2 1 1 2 0 2-7-2-14-2-21 0-9 2-16 7-20 16-2 5-4 10-8 15h-2c0-4-1-9 2-12 3-4 4-8 5-13 3-4 5-9 11-11z"/><path fill="#353939" d="m566 654 3-3c-6-1-51-28-60-37 7 0 13 4 19 6l4 2c6 3 12 7 19 9l15 4 4-1 4 4-1 4c-1 2-3 1-4 0-5-4-12-5-18-7-2-1-3 0-4 1-1 2 1 2 2 3 7 3 12 9 21 9 2 0 1 2 1 4l-5 2z"/><path fill="#D2CBC6" d="m257 697 26-8c8-3 14-7 22-9-6 8-15 11-23 16-6 3-12 8-19 8-2 1-4 0-6-1-7-3-13-2-19-1l-1 2-14 2c0-1 3-1 1-3l9-2c6-2 12-2 19-3 1 0 3 1 5-1z"/><path fill="#ABAEA9" d="M274 729c-1-2 3-4 0-6-2-2-5-1-7 0l-8 3c-6 2-11 4-17 2 10-5 21-7 32-9 5-1 9-1 13 2 2 2 6 2 9 2h7c2 1 5 2 3 6-7 1-15 0-22-1-3 1-6-2-9 1h-1z"/><path fill="#829190" d="M242 616c-14 7-27 16-43 19 12-11 26-19 43-19z"/><path fill="#6B605B" d="M193 594c-1 5-2 9-5 13-3 3-3 8-1 12-2 4-5 8-10 10-2 0-3 0-4-2 3-3-1-6-1-9-1-2 1-2 2-4h1c3 5 4 5 6-1 3-5 5-11 9-16 1-1 1-4 3-3z"/><path fill="#828781" d="M306 729c0-3-2-5-5-5-7 0-14 1-20-4-1-2-5-1-7-1l13-5c3 0 4 0 6 3 2 5 6 4 10 4s7 1 6 5c0 2-1 3-3 3z"/><path fill="#CED1D3" d="M214 446c1-2 3-1 5 0 3 2 5 4 7 8l4 5c4 3 5 3 6-2l1 3c3 7 3 7-5 8-2 0-3-1-4-3l-10-16c-1-2-2-4-4-3z"/><path fill="#DDD9D5" d="M314 591c-4-2-7-7-10-10-1 0-2-1-1-2l3-1h3c7 4 14 9 20 17-5 0-8-2-11-3-1-1-2-3-4-1z"/><path fill="#D6CEC6" d="M324 610h3c-5-3-5-8-4-13 5 1 8 3 11 6l8 10-18-3z"/><path fill="#1B2127" d="M308 571c-9-5-18-12-25-19l-15-9 1-1c10 2 16 10 24 15l7 4c3 1 5 4 7 6l4 2c2 1 4 2 3 5-3 1-4-2-6-3z"/><path fill="#1F2122" d="M366 683c-10 2-17-2-25-7l-13-9c9 2 16 5 23 10l7 4c1 1 2 2 3 0l5 2z"/><path fill="#242A2C" d="M348 672c-7-5-14-11-23-12l-7-2c1-3 3-1 4-1l27 6 3 1c-6 1-6 1-4 8z"/><path fill="#343435" d="M248 464c3-3 0-6 1-9 2 4 4 4 8 2l10-5c3-1 5-1 7 1-6 1-10 5-15 7-1 1-3 2-3 5l-1-1c-2-2-3-4-5 0h-2z"/><path fill="#C7D3E1" d="m343 583 1-1c9 13 18 27 25 42 1 1 1 2-1 2l-25-43z"/><path fill="#72635F" d="m237 704-2-2c7-1 15-5 22 1l6 1-7 2c0-2-2-2-4-2h-15z"/><path fill="#2A292C" d="m342 651-18-6 1-1 29 5c-4 1-8 0-12 2z"/><path fill="#686C6E" d="M222 775h4l-6-8 6 3c0-3-4-3-4-7 2 2 5 0 5 4 2 4 5 6 9 7 1 1 3 1 2 3h-2l-8-4c0 5-3 4-6 2z"/><path fill="#172945" d="m301 559-24-19c4 0 7 3 9 5 6 4 13 6 15 14z"/><path fill="#000F13" d="M236 777c3-1-1-2 0-3 3 1 6 0 9 3 1 2 2 4 1 6l-2 2-5-4c0-2-2-3-3-4z"/><path fill="#718494" d="m368 626 1-2 13 30c-6-8-10-18-14-28z"/><path fill="#01060A" d="m224 410-3 4-5 4c-2-7-2-8 8-8z"/><path fill="#73808F" d="m412 657 1-2c3 7 3 15 4 22l-5-20z"/><path fill="#B4BEC1" d="m308 571 6 3 3 2v1l-11-4c1 0 3 1 2-2z"/><path fill="#A1B5C7" d="M311 569c-5-1-8-5-11-8l1-1c4 2 6 6 10 9z"/><path fill="#01060A" d="M216 418c-2 2-3 5-6 6-1-5 3-5 6-6z"/><path fill="#010406" d="M602 678c-25 12-51 21-77 29-31 10-61 20-93 25-5 1-9 3-12 6l-17 14c-4 4-10 7-16 9-15 3-31 5-45-5-10-6-16-16-15-28 0-13 7-22 18-27 20-11 41-9 62-2 7 3 13 8 15 16 1 3 2 3 5 3 15-1 30-6 45-10 30-8 58-19 87-28a833 833 0 0 0 135-55c4-3 5-5 2-9l-1-5c1-6 3-13-2-19-2-2-1-5 0-7v-42l-1-6-1-3c4-5 1-12 6-16 2 1 1 3 1 5-2 16-1 31-1 46 0 14 7 26 11 38 4 6 5 14 9 20v3c-2 7-8 7-13 7-3 0-5 1-7 4-1 2-1 3 1 5 6 7 6 10 1 16h-2c-4-2-8-4-9-9-1-4-3-4-6-2l-5 3c-4 1-4 3-2 6 4 6 9 11 15 15l4 3c0 2-2 3-4 3-6-3-12-1-18-1-3 2-6 1-9-1-1-3-4-4-7-4l-6-4c-3-5-5-1-6 0h-3c-6-6-12-5-19-3l-11 5-3 3c-1 2-4 1-6 2z"/><path fill="#97908E" d="M741 780c2 3 1 6 2 10 3 11 8 20 14 30-1 2-1 3-2 2l-7-3-6-6c-3-3-6-5-11-4-3 0-5-1-6-3l-7-7-3-1-4-2c-3-4-6-7-10-9-2-1-3-2-5-1-3 0-4-5-7-5h-2l-6 3c-2 1-4 1-3-2l-1-1 1 1-3 3v-6c3-10 0-18-3-27-1-4-3-7-3-11 1-3-1-7-1-10 0-2-1-5 2-6 10 8 16 19 22 29 5 7 12 13 16 20 0 1 1 3 2 0 3 0 5-1 6-3 1 1 1 4 4 3h10c3 1 4 4 5 6l4 7c1-2 0-5 2-7z"/><path fill="#A09E9A" d="m428 743 23-6c14-2 27-7 40-10l26-8c11-1 21 3 28 12 6 7 8 16 13 23v3c-4-4-8-9-11-15l-7-9c-1 0-3-1-3-3-4-6-11-5-17-4-7 0-14 0-20 4-2 1-3 0-4-1-2-1-3 0-2 2 3 5 4 11 6 16 1 3 0 4-3 4-3 1-5-1-7-3l-7-7-3-2c-2 1 0 3 0 4l13 29c1 3 1 3-1 5-12-10-21-22-32-34 6 17 17 31 16 51-3-1-3-3-4-4-7-12-17-22-26-32l-12-13-6-2z"/><path fill="#A8AAA9" d="M558 757c-5-9-8-20-16-28-2-3-6-6-10-7l-15-3 42-15 16-5c7 0 12 6 12 13l-1 4c-3 4-11 6-17 4l-4-2c4 8 7 14 8 22l1 11-1 2-2-1-1-3c-1-8-5-14-9-21l-2-3c-1-2-4-4-6-2-2 1 0 4 1 5l6 8c5 7 7 16 10 24 1 2 0 5-1 7 0 3-1 4-3 1l-8-11z"/><path fill="#96948E" d="M494 731v-3h2c2 2 3 1 5 0 6-3 13-3 20-4h8c5 0 7 2 8 6-3 1-1 2-1 3 6 13 10 26 11 39 0 4 0 8-3 11-1 2-3 2-4-1-4-17-17-27-29-39l-15-12c0-1-1-4-2 0z"/><path fill="#95958B" d="m334 861-1-2h-2c-3 0-9-10-8-14v-4l2-30c-1-2 0-2 2-3l6 8c2 4 4 4 6 0 2-3 2-7 2-11v-5c3 3 4 7 4 11l-3 13-2 11c1 2 2 3 5 1s7-4 9-8c1-2 2-2 4-1l1 3c-1 2-3 4-1 6 0 3-1 5-3 7l-8 16c-2 2-2 6-1 9v6l-1 4-1 2c-1 1-1 2-3 2l-1-3c3-5 0-11 0-16 0-3-1-5-4-2h-2z"/><path fill="#898D8D" d="m616 756-10 20c0 1 0 2-2 3-1-1-4 2-3-2 5-12 8-25 12-38l9-15 3-12c0-1 0-3 2-4l3 3 8 8c5 3 10 5 11 11-2 3-5 1-7 0s-3-1-3 1c-1 6-7 14-12 15-6 0-9 3-10 8l-1 2z"/><path fill="#ABA59A" d="M488 866v-1c-2-7-1-14-5-20l6-30c2-5 2-5 6-1l8 13c3 8 6 17 3 26-2-2 0-5-1-8-1 7-3 15-8 21-3 5-6 5-9 0z"/><path fill="#F5F4F5" d="M694 678c-8-4-14-10-20-17-3-5-3-5 2-8l2 2c5 9 9 10 18 7h3c2 2 3 2 6 2 8 2 17 2 26 3h5l3 1c0 2-1 2-2 3l-15 7-16 2c-4 0-8 0-12-2z"/><path fill="#8F8C8B" d="m492 777 1-3c-3-3-3-8-5-11-5-7-5-15-9-21-1-1-2-3 0-5 2-1 4 0 5 2l8 9c3 3 7 3 8-1 4 9 5 20 6 30v19l-14-19z"/><path fill="#958E87" d="M435 833c1-7 3-15 2-24 6 8 9 15 11 23l1 4c0 1 0 4 3 4 2 0 3-2 3-5l1-27c3 14 7 28 3 42-3 0-3 3-5 5s-4 4-8 3c-4 0-5-3-6-6-2-7-3-14-2-22l-1-4c0-1-1 0 0 0 1 3 2 6-2 7z"/><path fill="#8D8D8D" d="M569 720c5 1 10-1 15-4 1-1 2-1 2-3 1-5-5-12-10-13l-1-1 8-3c2 0 4-1 4 2-2 2-1 3 0 4l8 24c-3 8 0 17-2 25-3 2-3-1-3-2-4-11-11-21-21-29z"/><path fill="#E8E5E2" d="M584 816c-1 1-2 3-3 2l-5-6c-4-6-4-6-9-2l4-10 8-15c3-3 6-6 11-5 2 0 4 1 3 4l-10 30 1 2z"/><path fill="#A5A6A6" d="m392 872-2 3c-2 1-2 1-3-1-2-4-2-9-7-10 4-10 8-19 10-30v-6c2-5 1-11 3-17 3 10 4 19 3 29v15c2 3-1 5-2 8-1 2-3 4-1 7l-1 2z"/><path fill="#B2B3B6" d="M716 771c-1 4-3 5-6 3-5-8-8-17-11-25l-13-24c-1-1-2-3-1-6 15 15 24 33 31 52z"/><path fill="#AEA69D" d="M435 833c2-1 1-3 2-4l1-5c2 7 1 13 2 19l2 10c2 5 7 6 10 1l6-7 1 3-4 11c-2 1-3 4-6 5-5 3-10 1-13-5-2-3-3-5-7-6a1264 1264 0 0 0 6-22z"/><path fill="#A8AAA9" d="M587 698c-1-2-3-2-4-2 7-5 15-8 22-14-4 6-3 12-2 18 2 8 3 15 1 24-5-9-10-18-17-26z"/><path fill="#BCC0B8" d="M310 846c-4 11-13 18-23 24-1 1-4 2-5 1-1-2 2-3 3-4l3-4c5-5 8-11 11-17 3-4 4-9 5-14l2-7c0-1 0-3 2-3 3 0 3 2 3 4v12l-1 8z"/><path fill="#D9D6D2" d="M429 855c4-2 6 1 7 4 6 10 10 10 17 1 2-1 2 0 2 1-2 6-3 13-7 19-3-2-2 1-3 2s-1 3-3 3-2-2-3-3l-1-6c0-5-1-9-6-11-3-1-6 2-9 4l-1 1 7-15z"/><path fill="#8D8F8C" d="M569 767c1-10-4-18-8-27l-10-14v-4c0-2 2-1 3-1 3 0 6 2 7 5 4 6 8 12 10 20 0 2-1 4 1 6 2-4 0-8 1-12 2 10 1 19-4 27z"/><path fill="#797A72" d="M357 836c-4-1-1-3 0-4 0-2 2-3 0-5-2-1-3 2-3 3-1 7-8 6-12 9-2 2-1-2-2-4 2 2 4 0 5-1 7-8 13-16 18-25l4-6h3l1 10c1 1 1 2-1 2v-4c-1 6-5 13-8 20-1 2-2 5-5 5z"/><path fill="#01080C" d="M611 673c6-6 14-8 22-8 4 0 7 3 8 6l5 5c1 1 3 2 1 4-1 2-4 2-6 0l-4-3c-6 0-10-5-16-3-3 1-6-2-10-1z"/><path fill="#DCDCD6" d="M274 729h1l25 7c2 0 5 1 4 3 0 3-3 2-5 2-9 0-18 0-27-2l2-10z"/><path fill="#A9AAAB" d="m400 853 10-18c2-3 4-1 5 1l2-7c0-1 0-3 2-3v12c0 4-1 7-3 10l-7 8-2 1c-2 2-4 3-6 2-3-2-1-4-1-6z"/><path fill="#C2C7C8" d="M400 853c2 1-2 4 2 5 3 0 5-3 7-4l6-7c1-1 1 1 1 1-2 7-5 14-10 20 0-1 0-2-1-1-4 4-9 3-13 5v-2c0-6 4-10 6-15l2-2z"/><path fill="#D7D6D2" d="M547 828c-4-4-7-2-11 5l-4 13c-1-4 2-8 0-12 3-9 6-17 6-27 5 7 10 13 9 21z"/><path fill="#676B6B" d="M670 725c-3 3 0 7 1 10l-1 6c-2 0-2-2-3-3-2-6-5-11-9-15-2-3-3-5-6-6l-1-2-4-3c0-2 0-3 2-2 7 4 14 6 20 12l1 3z"/><path fill="#9A9B95" d="M310 846c-2-4 0-9 0-13v-5c0-2 1-4-2-5l-2 4c-1 2 0 4-2 5 0-6 2-10 4-15 1-2 2-2 4 0 3 3 4 6 3 10v7c-1 4-2 9-5 12z"/><path fill="#EBEFF3" d="M646 676c-2-1-5-2-5-5h3c2-1 4-3 6-1l6 4 8 4c2 2 5 2 8 2l3 2c-9 3-17 0-24-4l-5-2z"/><path fill="#DAD7D4" d="M488 866c5 4 6 4 9-2 4-6 6-14 9-21v10c0 4-1 9-3 13-1-3-2-2-3 1 0 4-4 6-8 6-4 1-3-4-4-7z"/><path fill="#252B2B" d="M649 710c-1 0-2 1-1 2l4 3c-3 0-4 3-6 3-3 0-5-3-8-3-4-2-4-7-9-9v-1h2c6 2 12 2 18 5z"/><path fill="#424747" d="M327 808c-3 1-1 3-1 4 1 10-2 20-2 30h-1c0-6 1-11-1-17v-16c0-1-1-4 1-4s3 1 4 3z"/><path fill="#9B9D9D" d="M638 715c0-2 1-2 2-1l6 4c3 1 3 3 5 5l9 12c1 1 3 3 1 5-2 1-4-2-5-3l-1-1c-3-5-7-10-12-14-1-1-3-2-3-4 0-1-2-1-2-3z"/><path fill="#606161" d="m593 751-1-16c0-2-1-5 3-6v-3c4 9 2 17-2 25z"/><path fill="#7C7D7D" d="m419 826-3 12c-2-2-3-5-6-3l3-9c1-3 4-3 6 0z"/><path fill="#807F78" d="m503 827-9-12c-2-3-3-3-5 0l2-10c5 7 10 14 12 22z"/><path fill="#D8D9D2" d="M483 845c2 0 3 0 3 3a514 514 0 0 0 0 10c0-3-1-4-3-5-2 0-3 2-3 3l-3 4 6-15z"/><path fill="#9A9FA0" d="M593 784c-2-4-7-4-10-1-4 4-6 9-9 14-1 1-1 3-3 3 3-8 7-15 13-21l7-2c2 0 4 2 3 5l-1 2z"/><path fill="#B7ACA8" d="M726 726c0 3 3 4 3 7-3 2-3 5-3 7l-1 6h-1c-1-6-2-11-1-17 0-1 0-3 3-3z"/><path fill="#635F5D" d="M730 774c-3 4-7 1-10 0 4-1 6-4 5-8v-8h1l2 6 2 9v1z"/><path fill="#565757" d="M640 718c6 5 12 10 16 17l-1 2c-3-1-5-4-6-7-3-5-8-7-11-11l2-1z"/><path fill="#5B605E" d="m398 855-6 15c-3-1-1-3-1-3l5-12h2z"/><path fill="#3F4D4F" d="M594 782c0-4-2-4-5-4l-5 1 6-3c7 0 7 0 4 6z"/><path fill="#828781" d="m284 728 22 1c-7 2-15 1-22-1z"/><path fill="#9A9B95" d="M304 832c0 5-1 10-5 14l5-14z"/><path fill="#474D4C" d="M601 777c0 1 0 2 2 1 1-1 1 0 1 1-2 1-1 4-3 5-1-2-2-5 0-7z"/><path fill="#81898B" d="m602 678 6-2c1 0 2 0 1 1l-3 4c1-3-2-3-4-3z"/><path fill="#96948E" d="M540 733c4 2 7 5 7 9l-7-9z"/><path fill="#958E87" d="M435 834c1 4 0 8-3 11 0-4 1-8 3-11z"/><path fill="#97908E" d="M726 758h-1l-1-12h1c2 4 4 8 1 12z"/><path fill="#7C7D7D" d="M419 838v-12c2 4 1 8 0 12z"/><path fill="#59605D" d="M316 721v11c-2-4-1-7 0-11z"/><path fill="#FEFEFE" d="M334 861c2-1 3-5 6-4s0 5 1 7c2 6 3 11-1 18 3-1 3-3 4-4h1c0 5 4 9 2 15-18 30-44 47-78 56l8-8c14-12 25-26 34-43 6-13 15-25 23-37z"/><path fill="#A09B94" d="m304 1161 8-10c-12 28-13 59-20 89l-1 1c-10 8-21 13-30 22-4 1-5-1-4-4l2-7c11-24 19-50 34-72l11-17s2-1 0-2z"/><path fill="#ECECEC" d="m347 893-3-15 1-4c0-3 2-5 4-8 6-7 10-15 15-24 4-6 3-13 5-19 1-2 0-4 3-5l1 8c-1 26-12 47-26 67z"/><path fill="#77786F" d="M323 842h1c-3 7 4 11 6 16l3 1-11 8c-2 2-5 2-7 0-3-2-1-4 0-6 4-6 7-12 8-19z"/><path fill="#CAD2D3" d="M272 1080c0 2 0 3-2 4-4 4-6 10-9 15-1 2-1 3 1 3l4 2c1 1 0 1-1 2l-8 6c-2 1-5 4-7 2-3-3 0-5 2-7l2-4 18-23z"/><path fill="#A3B4AD" d="m249 1192 16-25c1 3 3 6 2 9-5 8-10 15-17 21-2 1-2 0-2-1l1-4z"/><path fill="#0B2139" d="M300 968c-4 9-11 15-17 22l-7 7c-2 2-3 5-7 5 3-5 8-10 13-15 5-6 11-10 15-17l3-2z"/><path fill="#DCE5E2" d="M267 1176c0-3-3-6-2-9 1-4 3-7 6-10v2c0 5 3 4 6 3-2 5-7 9-10 14z"/><path fill="#B6C4C1" d="M266 1197c1 3-1 7 3 8l-9 13c0-7 3-14 6-21z"/><path fill="#4A4B43" d="m304 1161 4-2-15 21c0-2 0-4-2-1l-2 1 15-19z"/><path fill="#486362" d="M254 1103c0 3-2 5-3 7-1 1-2 2-1 4 1 1 3 0 4-1l3-1c-2 3-6 4-9 6h-3l1-2c3-4 4-9 8-13z"/><path fill="#3B413D" d="M282 1158c2-4 5-7 9-9-2 4-4 8-8 12 0-1 1-3-1-3z"/><path fill="#595D5E" d="m259 1252-1 5c-1 3-1 5 3 6l-3 4c-1 1-2 0-2-1v-6c1-3 1-6 3-8z"/><path fill="#363737" d="m265 1106 1-2 8-5c0 4-3 6-6 8 0-2-2-1-3-1zM268 1107c-3 5-8 10-13 13l13-13z"/><path fill="#000F13" d="m373 826-1-7-2 5c-2-1-1-4-2-6l2-3 1-2c3 4 2 9 2 13z"/><path fill="#B1CFDF" d="m269 1002 7-5-2 4c-3 3 1 1 1 2l-5 2c-1 0-2 1-2-1l1-2z"/><path fill="#505C5D" d="M249 1192c1 1-3 4 1 5-1 1-2 2-3 1-2-1-1-2 0-3l2-3z"/><path fill="#000F13" d="m291 1241 1-1c2 0 3-2 4-1 1 2 0 3-1 5 0-4-2-3-4-3zM256 1260c1 2-2 5 2 7-1 1-2 3-3 0 0-3-1-5 1-7z"/><path fill="#A2A1A0" d="m649 730 6 7c5 4 7 9 10 14 5 10 9 21 10 32l1 2c2-1 0-3 2-6-1 6 1 4 4 3l6-3c2 3 1 7 2 10l-1 2v9l1 18-1 4h-5l-9-3c-3-1-3-3-6-5 0 4 2 7 3 10 0 2 2 4 0 7h-9c-2 0-1 2-1 3l6 20c6 18 15 35 27 49 2 3 4 5 4 8 2 7 0 11-5 15-5 5-11 9-15 15-2 3-3 6 1 9 2 2 1 2-1 3l-18-17-12-10c-1-1-3-2-4-1s0 3 1 4l2 5c-5 0-6-5-9-8-2-4-5-8-11-8-3 0-9-10-9-13l1-3c1-1 2 0 3 1l7 6 4 4c3 2 5 4 8 1 2-2 3-5 1-8-1-3-5-6-7-9l-4-3c-1-2-3-4-1-6s4-2 7-1l3 2 9 9c1 1 2 3 4 1 2-1 2-2 2-4-2-6-5-10-8-14l-13-20c0-5-3-9-5-14-1-3-3-5-2-9 5 4 6 10 10 14l13 21-7-34-11-35 12 6c1 1 2 2 4 1l-1-4-10-19-15-27c-1-3-3-5-7-5 1-8 2-9 10-11 4-1 5-4 8-6 4-2 4-4 3-8 0-3 2-4 4-3 3 1 5 3 8 2z"/><path fill="#F40129" d="m1029 1000 14-5c5-2 6-1 6 4 2 71 1 142 1 212l-1 39c0 5-1 7-6 9-14 4-28 10-42 16l-68 25-60 25-61 22c-8 2-16 7-24 10l-29 10c-2 1-6 1-8-1-2-3-1-6 0-8l3-5c3-5 5-10 4-15-1-6 1-10 6-12 6-3 9-8 13-11 3-3 3-7 2-10l2-13 3-9c0-3 2-5 5-6s7-2 10-5c9-6 19-9 29-13 3-2 4 0 5 2l6 18 4 7c1 4-1 6-4 7-5 2-6 5-6 10l2 7c2 5 1 8-4 11-2 2-4 3-4 6-1 4-3 7-6 10-1 0-2 2-1 3s3 0 3-1l8-8c1-2 2-3 4-2l4 1c8 3 13-2 19-5 9-5 18-7 27-10l24-11 9-2c8-2 16-5 22-10l3-1c10 1 18-6 27-9l11-4c3-1 6-1 7-4l4-1c4 1 7-1 11-3 3-1 5-2 7-5 1-2 3-2 5-2 10 1 16-6 23-10l2-5c0-5 1-9 4-12l1-3a225 225 0 0 1 0-37c-2-8-1-16-1-25l-1-31 2-27 1-29v-36c1-5 1-10-1-14l-1-3c2-8 0-17 1-25 1-2 1-5-1-6-3-1-5 0-7 2s-5 2-8 3c-7 2-14 3-19 10l-5 2c-9-1-16 4-23 8l-4 2c-4 0-8 2-12 5l-11 4c-5 4-12 6-19 7-6 1-11 6-17 7-3 0-6 2-8 5-1 2-4 3-6 2-4-1-7 0-10 3l-10 4c-12 2-23 8-35 11l-11 8-21 8c-3 2-6 4-10 2l-4 3c-2 2-5 4-8 2s-6 1-9 2-6 3-9 1l2-2 51-20c1 0 3 0 4-2l48-17 82-33c20-7 41-16 61-25l3-2z"/><path fill="#B0B0B0" d="M644 982c-2-3-2-3-7-5 1 4 0 7-2 10-2 2-1 6-3 9-4 5-6 11-12 14-4 3-6 6-11 4-2-1-2 1-2 3-3 0-1-3-2-3-7-14-10-29-14-44l-13-51 11 9c11 10 20 20 32 29 5 4 10 7 16 9 3 0 4 0 4-3 3 0 4 2 4 4l8 20c0 2 0 3-2 2l-7-7z"/><path fill="#8D8D8D" d="M679 953c3-2 0-3-1-3-4-3-3-6 0-9 4-6 9-11 15-15 5-4 7-9 6-15h1c5 7 10 14 17 19-4-7-8-14-10-21l-2-5c0-3 1-5 5-3l4 9 2 4c1 6 5 11 7 16 1 2 2 3 1 5-1 1-2-1-4-1-5-2-11 0-17-2l1 3 16 36 6 12c1 1 2 2 1 3h-3c-5-1-9-4-13-6-12-8-22-17-32-27z"/><path fill="#BDBCBB" d="M641 889c-3-2-7-4-9 0-2 3 2 5 4 7l7 6c2 3 3 6 2 9-1 6-4 7-10 4l-11-11c-1-1-2-2-4-1s0 3 0 4c3 5 5 11 13 10 4 0 5 5 7 7 2 4 5 8 8 10 3 3 4 6 6 10l2 5c2 3 1 5-2 5h-10c-4-2-6-1-8 2-9-7-15-17-22-27l-4-8c-1-1-2-2-1-3 2-1 3 1 3 2 5 5 9 11 16 15l3 1v-3c-2-8-5-14-10-20-7-9-11-20-15-31l1-2 11 14c5 7 11 13 17 18 1 1 2 3 3 2 2-1 1-3 1-4 0-3-2-5-3-8-7-9-14-19-18-30-3-5-5-11-6-18 5 4 7 8 10 12l18 21 1 2z"/><path fill="#A39E9A" d="M636 956c1-6 2-6 7-4 4 2 8 1 11 1 2 0 3-1 1-3l-1-6c8 13 19 24 27 36l4 5c0 2-1 1-2 1l-6-3c-2-1-5-3-7-2-3 2-5 6-6 9s1 5 2 7c3 2 6 4 7 8l-2 1-20-17h1c-4-8-5-17-9-25l-2-1-5-7z"/><path fill="#908C89" d="m673 1005-8-8c-3-2-3-5-2-8l5-8c1-3 3-2 5-1l12 5 9 10c2 2 1 4-1 5-2 2-5 3-3 7v1c-6 1-11 0-17-2v-1z"/><path fill="#DAD8D4" d="m760 877 21 25c1 3-1 2-2 1-9-4-16-9-23-16a131 131 0 0 1-23-32c-1-2-1-2 1-2 0 4 4 6 7 9l12 9c3 1 5 4 7 6z"/><path fill="#A6ABAD" d="m671 1006 2-1c4 3 8 6 14 5 4-1 8 2 11 5l16 17c-17-4-30-15-43-26z"/><path fill="#A7B1B7" d="m778 963-3-2c-6-4-10-9-15-14-7-7-11-15-13-24 6 9 13 18 21 26 3 4 6 8 11 10l2 2 1 2h-4z"/><path fill="#2C3030" d="M682 1062c-5-5-9-10-11-16 0-6-5-10-6-15l13 16c4 4 5 10 4 15z"/><path fill="#5A5D5D" d="M690 1007c-3-3 0-5 2-7 1-2 3-3 2-5 3 2 4 6 6 9v3h-3l-6-2c-2-1-1 1-1 2z"/><path fill="#A39E9A" d="M698 1015c-3-1-5-4-9-4h-2c-7 3-10-2-14-6l17 3 8 7z"/><path fill="#F10121" d="M717 630c-4-7-7-14-9-22l-10-25-1-16c-1-15-1-30 2-45l3-23 2-9c2-7 8-8 13-10 3-2 6 2 4 5-5 14-7 28-9 43-2 18-5 37-1 56 3 14 7 28 17 40 7 8 19 10 30 5 8-4 16-10 22-17l8-13c6-11 9-23 11-36l3-30c1-13 3-25 1-37v-8l-1-7 2-7 3-2c2 1 2 2 2 3l2 17c2 18 1 35-1 53-1 12-2 24-5 36l-5 17c-11 21-22 42-48 48l-8 1c-6-1-13-3-18-7l-9-10z"/><path fill="#FAFBFB" d="M704 407c4-3 8-5 13-6 3-1 5-1 5 4 4-4 4-8 5-12 1-16 1-33-1-49l-1-20c0-3 1-4 5-4l19-2c3-1 5-1 6 2 4 18 6 37 8 55l3 24c1 5 1 5-4 4-7-2-10-6-11-12l-8-54c-1-5-4-9-9-11v5c4 21 4 43 5 65 0 4-1 7-5 9l-6 4c-9 3-16 10-22 17a83 83 0 0 0-23 35c-3-1-3-4-2-6 3-5 4-11 7-15 3-3 5-7 6-10 1-5 7-6 10-8l7-5c4-3 5-7 2-11-3 1-6 6-9 1z"/><path fill="#FEFEFE" d="m723 300-6-12-11-22a321 321 0 0 0-29-37c-7-5-7-11-8-18 0-3 3-2 4-1 11 3 21 8 30 15 21 16 36 36 46 61 1 5-2 5-5 5l-16 1c-3 0-2 2-3 4 0 2 1 4-2 4z"/><path fill="#CA020F" d="M781 612c-10 12-21 21-37 21-6 0-11-2-15-6-8-8-12-18-16-28-5-14-6-28-5-43 1-20 3-39 8-59l4-13c1-1 0-2-1-3h-2c-4 4-10 3-12 8-2-4 1-8 2-11 2-7 3-14 6-20l5-7c0-2 1-3 3-4 3 0 4-2 7-4 10-6 22-7 33-10l9 2c8 1 17 3 24 9 1 0 1 2 3 2 8 15 14 30 15 48 2 29 0 59-6 88-1 5-3 11-6 16 2-10 5-19 6-29l4-31 1-39-2-22-2-3c-2-1-2 1-3 3-2 3 1 7 0 11-3-1-3-3-3-5-2-8-5-15-9-22l-5-11c-1-4-3-6-7-8-7-3-15-3-22-3-5 1-10 3-13 6 2 4 10-1 7 7-3 4-8 5-11 9l-6 8c-2 2-2 5-3 7-14 12-15 29-18 45-3 18-4 35-2 53 1 18 5 36 19 50 6 6 13 8 22 5 8-3 15-7 21-13 2-2 3-5 7-4z"/><path fill="#04101B" d="m599 170-2-1c-4-3-6-7-8-12 0-1 1-3 3-2 3 3 7 0 10-1l11 8 8 6c-3-3-4-5-7-6-4-3-8-7-11-12l-6-10c-2-7-6-14-9-20-2-2-3-5-3-7-1-2-2-3-1-4 2-1 3 0 4 1l2 2c10 8 16 18 22 29l10 17 10 19c6 13 8 27 13 40l6 18v-5c2 4 0 9 3 13 0 1-4 0-3 2-2 0-2-1-2-2-4-17-14-30-24-44l-11-13c-5-6-9-12-15-16z"/><path fill="#F4F3F4" d="M615 185c16 18 30 37 36 60l3 18c1 7 2 15 1 23v24l-7 37c-2 9-6 18-11 27 2-11 6-21 7-32 6-34 5-68-7-101-6-17-10-34-20-49l-3-5c-1-1-1-2 1-2z"/><path fill="#B43754" d="M712 300c1 3-1 4-3 5-3 0-3-2-4-4-2-8-6-15-10-22l-5-11v-3l2 1c6 12 12 24 20 34z"/><path fill="#F04560" d="M797 446c-2 2-1-2-3-1-3-4-7-5-12-7-7-3-15-3-22-8-2-2-6 0-9 1-4 1-7 4-12 3-1-1 0-2 1-3l9-4c5-2 11-3 17-1l18 8 5 2c4 3 6 6 8 10z"/><path fill="#F38CA6" d="M789 436c-3 2-5 0-7-1l-15-7c-8-3-16-2-23 2l-4 2-1-1c19-12 28-8 47 3l3 2z"/><path fill="#4C544E" d="m727 291 19-1c2-1 3-1 3-4 4 9 3 11-7 11l-6 1h-2c-2 0 2-1 0-2l-6-2c-1-1-2-1-1-3z"/><path fill="#E63F69" d="m739 431 1 1-1 2c-3 5-9 8-14 11l-2-1 14-13h2z"/><path fill="#4D0C1B" d="M692 266c-3-1-2 1-2 2l-8-16c5 4 8 9 10 14z"/><path fill="#01080C" d="m655 308-1-45c2 3 2 7 2 10v32l-1 3z"/><path fill="#030405" d="M700 911h-1c-8-12-18-23-24-37s-12-29-15-45c2-1 2 1 3 1l4 5 20 34c-6-11-10-24-15-36v-3l-4-15c0-1-1-3 1-4l3 3 3 4 2 2c7 12 14 24 14 39 1 10 4 19 11 27v6c-5 5-5 8-1 13 1 2 3 5-1 6z"/><path fill="#000F13" d="M760 822c10 8 11 14 2 25-1 2-3 4-2 8l-1 4-4-2c-3-3-7-5-8-9v-5l-2-5-5-11-1-3c3-6 5-7 11-4l2 1 3 1c2 1 3 3 5 0z"/><path fill="#B3B2B4" d="M702 886c-7-5-11-11-11-20 0-18-7-33-16-48 0-1 0-2 2-1 3 2 7 1 9 4h2l1-2c-1-7-2-13 0-19v2l1 10v3c1 7 1 15 4 23 4 15 5 31 9 47l-1 1z"/><path fill="#F5EAE1" d="m726 758-1-12c0-4-1-8 1-11 0-2 1-3 3-2 6 15 10 31 12 47v10c-4-3-6-6-8-10l-3-6c-2-3-2-6-3-10l-1-6z"/><path fill="#B0AAAB" d="m746 838 2 5v3c-2 1-3-1-4-2l-23-28c-4-4-9-7-11-13l-3-4c-4-2-6-4-7-8l-2-3-2-2c1-3 3-2 5-1l14 13 3 3c1 3 3 6 6 8 5 7 13 12 17 20l5 9z"/><path fill="#000F13" d="M752 709c-3-7-3-8 5-9 2 0 4-1 4-4-1-2 0-3 2-4h2v2c-5 4-2 10-2 14l4 30 4 9c3 4 4 9 6 13v2h-3l-5-5c1-1 4 0 2-3l-4-7c-4-10-6-20-11-30-1-3-1-6-4-8z"/><path fill="#B7B5B8" d="m768 747 6 11c-2 1-3-1-5-1-13-10-22-23-30-39 7 2 10 8 15 11l5 5c4 3 6 9 9 13z"/><path fill="#6E737A" d="m768 747-10-13c-2-3-1-7-2-10-1-5-4-10-4-15l1-2c1-1 1 1 1 1 4 11 9 21 11 32 0 2 3 4 3 7z"/><path fill="#000F13" d="m737 671 1-2-2-1c-11 0-21 0-31-4 11 1 22-2 34 0 1 0 4 0 4 2 1 2-1 3-3 4l-3 1z"/><path fill="#030405" d="m696 786 2 2-9 3v-12c3 1 5 5 7 7z"/><path fill="#000F13" d="m710 803 11 13c-5-3-11-5-11-13zM700 791l7 8c-6 3-7 3-7-4v-4zM756 724l3 9c1 1-1 1-1 1l-5-5c4 0 3-3 3-5z"/><path fill="#7F7374" d="m755 823-2-1c-2-1-5-1-5-4l6 3c1 0 3 1 3-1l1 1c1 3-1 3-3 2z"/><path fill="#000F13" d="M734 853c-2 0-1 1-1 2l-2-2-1-5h2c2 1 2 3 2 5z"/><path fill="#3B4041" d="M744 844c1-3 3 5 4-1 1 2 5 4-1 5-1-1-3-2-3-4zM755 823c1 0 3 0 3-2l2 1v3c-2 1-3-1-5-2z"/><path fill="#000F13" d="M714 910c-2-3-4-5-5-9 4 2 5 6 5 9zM760 877l-6-6c3 1 5 3 6 6zM690 815v-11c2 4 1 7 0 11zM689 802v-10c2 3 1 7 1 10h-1z"/><path fill="#A2A1A0" d="M689 802h1v10c-2-3-1-7-1-10z"/><path fill="#01060A" d="M183 146c-3-3-4-7-5-12 1-4 5-7 5-12 0-2 3 0 3 1v20c0 2-2 3-3 3z"/><path fill="#5F6E72" d="M192 110c-2 16-1 32-5 49-2-3-2-6-2-8 1 0 2 1 2-1v-6c0-11 2-23 5-34z"/><path fill="#828D93" d="M180 208c2 2 1 4 2 6-2 1-3 0-4-2 4 0 1-3 2-4z"/><path fill="#666E74" d="M778 963c1-1 4 2 3-2 3 1 5 2 6 5l-9-3z"/><path fill="#030506" d="M427 1048c-6 13-8 28-10 43 7-8 10-17 14-26 1 11 1 23-5 33-7 12-17 18-30 21-2 1-4 1-6-1v-7c8-12 14-25 20-39 3-8 8-14 14-21 0-1 1-3 3-3z"/><path fill="#9C9E9A" d="M328 1215h-1c0-2-1-2-2 0-5 6-9 13-20 10l-1 1c12-31 21-63 42-90-7 26-14 52-18 79z"/><path fill="#D2D4D2" d="M497 1080c-2-1-3-3-3-5 0-1 0-3-2-3l-2 3v7l-3-15c3 0 3-2 3-4l-4-21c-2-7-3-15-2-20v21c0 3 1 5-1 7-2-3-2-6-2-9 0-14 0-27 2-41l1-3c0-1 0-2 2-2l1 1 4 8c0 4 2 8 5 11 6 7 11 14 15 22l2 4c3 6 8 10 15 10h15c3 0 3 2 4 4l3 6c-1 3-3 2-4 1-6-5-13-5-20-5-5-1-5-1-4 4l2 5c6 10 13 20 18 31l1 2c0 2 1 4-1 5-2 2-3 0-4-2l-13-14c-5-6-7-14-11-21l-1-8c0-3 0-6-2-9l-13-26c-1-2-2-3-4-2l-2-1c-1-1-1-2-3-2l-1 3c0 6 0 13 2 19 3 11 3 22 7 32 1 2 2 5 0 7z"/><path fill="#A2A3A2" d="m348 1241-4 2c-2-2-1-4 0-6l4-8c4-9 2-15-7-18-2-1-4 0-6-2l39-60-2 15-4 15-5 15c0 3-2 5-3 7-1 3-2 6 1 9 2 2-1 4 0 6-2 7-7 13-10 20l-3 5z"/><path fill="#939394" d="M335 1209c4 0 8 1 11 3 6 3 7 11 3 17-2 5-5 9-5 14-7 10-18 15-28 20-1 1-1 0-1-1 6-15 10-31 15-46l5-7z"/><path fill="#D6D8D7" d="M490 1084c2 9 1 18-1 27l-8 22c-3 5-8 7-13 4-6-4-13-7-15-15-1-2-2-4-5-3-2 1-2 3-2 5-1 7-1 15-4 22l4-37v-13l1-5c0-1 0-2 2-2l2 2c0 1 0 3 2 3 3 0 3-2 3-4 1-1 1-3 3-3l3 3c1 7 3 13 3 20l2 18c1 3 2 5 6 5 3 0 4-3 4-5 1-5 2-9 6-11 4-4 5-9 6-14l1-19z"/><path fill="#030303" d="M447 945c2 16-8 39-30 43-6 1-12 3-18-1-4-2-4-3 0-5l9-5c15-7 28-17 38-32h1z"/><path fill="#020406" d="M493 922c19-5 32-18 44-31 1-1 2-3 4-3 2-1 5-1 4 3-3 25-20 39-44 35-3 0-5-1-8-4z"/><path fill="#030304" d="m386 929 1 3c-3 20-12 37-32 46h-2c-3 1-7 3-9 0-1-2 3-3 5-5 12-12 23-26 34-40l3-4z"/><path fill="#EBECEA" d="M543 1051c-1 3-3 2-5 2l-8-1c-11 0-14-2-18-12-4-8-9-14-14-21l-2-4c5 4 9 9 12 15 3 3 6 7 11 8h1c3 1 4 6 7 4s0-5 2-8h1c6 5 10 10 13 17z"/><path fill="#717171" d="m397 1198 2-1c1-1 1-5 4-3 2 1 4 4 3 7-2 8-4 16-9 23-2 2-5 3-8 3-2 0-2-3-2-5 3-8 5-17 10-24z"/><path fill="#C8CCCB" d="M558 1037c3 5 3 10 3 16-1 2-3 4-5 1l-21-26-10-8c-1-1-2-2-3-1-2 1 0 2 0 4l1 2c-6-8-11-16-12-26 0-2-1-4 1-4 2-1 2 2 3 3 4 8 10 15 16 23l25 30 2 2 1-3c2-5-1-9-1-13z"/><path fill="#BAC4C6" d="M564 1015c-3-1-4-6-7-4-3 1-1 5-1 8v12c-6-10-9-21-11-32-1-3 1-5 2-7 1-3 2-1 3 0l5 7c2 6 7 10 9 16z"/><path fill="#A0ADB2" d="m483 1050-1-26 2-11c2 2 1 4 1 6-1 10 2 21 3 31l3 15c1 1 2 3 0 4s-3-1-4-2l-4-17z"/><path fill="#C1C1C2" d="M560 978c8 6 15 13 15 24 0 6 1 12 4 17 2 2 2 5 0 7-1 2-4 2-6 0 4 0 6-1 4-5-3-8-5-17-9-25-3-6-6-11-8-18z"/><path fill="#E4E5E8" d="M644 839c5 11 6 23 9 34l-1 3-2-2c-4-7-9-14-12-22l4 5h3v-2l-1-16z"/><path fill="#D7D7D7" d="m605 1014 2 3c0 2 2 4 3 5 1 3 0 6-2 7-2 2-3-1-5-2-2-2-2-5-5-6-3-3-7-5-6-10 3 0 5 4 7 6l5 2c2-1 1-3 1-5z"/><path fill="#D9D9D9" d="M361 1216c0-3-1-6-4-9l1-3 5-10-2 7c0 1-2 3 1 4 1 1 2-1 3-2 3-3 4-7 8-8l-12 21z"/><path fill="#767678" d="m628 838 8 20c1 1 3 3-1 3-6-9-10-19-13-30l6 7z"/><path fill="#24221E" d="M418 962c5-9 11-16 17-23-4 9-7 19-17 23z"/><path fill="#555554" d="m592 1011 6 10v2c-2 0-2-2-3-3-2 3-1 6-1 9-2-4-4-7-4-12 0-4-3-7-5-11v-2l2 1 5 6z"/><path fill="#CFD1D0" d="M417 1181v-3c-2 1-3 2-3 4-1 2-1 5-5 3-1-1-2 1-3 2l-5 4c3-5 7-10 12-13 2-2 3-6 7-7 0 4-1 7-3 10z"/><path fill="#C1C1C2" d="M573 1026c-2-1-4-3-5-6 2 2 4 3 5 6z"/><path fill="#000F13" d="M412 1370v33l-1 3 1-36z"/><path fill="#020202" d="m203 1435 13 33-1 4-25 11c5-16 10-31 13-48z"/><path fill="#020101" d="M482 1319c3 7 3 13 5 19l6 19c0 2 1 4-2 5-8 1-15 5-23 9 4-17 8-34 14-52z"/><path fill="#9C9E9A" d="M322 1225c0 3 0 5-4 5 0-3 2-4 4-5z"/><path fill="#060709" d="M330 374c11-6 23-5 37-2l-21 6c-6 2-13 4-19 8-12 7-25 11-38 16-1 1-3 1-3 4 0 12 4 23 12 33 2-3 2-5 2-8 1-2 0-4 4-2h5c-2 7-6 13-9 20 0-8-6-12-10-16-6-7-12-14-14-24l1-9c1-1 1-4 4-2 1 1 1 0 2-1 2-5 8-7 13-9l28-10 15-4c-7 2-7 2-9 0z"/><path fill="#AEAAAA" d="M604 270c2 17 2 34 0 51-2-29-7-57-21-85l2 20c-3 0 0-4-2-5-2-7-1-15-3-23 4 1 4 6 7 8l-2-10-4-15c0-1-1-3 1-4 1-1 2 1 2 2 5 5 8 11 12 17v-3c2 3 1 7 3 10v3c-1 1-2-1-2-1l-3-6c1 10 3 21 7 31l3 10z"/><path fill="#020203" d="M259 403c12 15 23 31 34 48h-13c-4 1-7-2-9-5a64 64 0 0 1-12-43z"/><path fill="#030304" d="M438 350c6-7 13-9 20-11 18-6 33-3 46 10 1 1 3 3 2 4-1 2-3 1-4 0-18-9-37-7-57-4l-4 1h-3z"/><path fill="#F5F7F4" d="M461 545c30 6 53-14 64-35l1-2c2-6 2-6 9-3 4 4 0 6-2 8-6 9-14 17-23 24-3 5-9 5-13 7l-5 1 14-4c3 0 4 2 4 5v1c-4 3-7 6-12 5 0-4-3-6-8-6l-20 1-9-2z"/><path fill="#060606" d="M362 426c-7 3-14 5-22 6-6 0-11 2-16 6-5 5-11 10-17 13l-3 1c10-14 23-26 29-43 3 5 2 9 3 13 1 5 5 8 9 6 5-4 11-2 17-2z"/><path fill="#33373A" d="m590 112-6-2c4 10 12 19 14 30-3 0-4-2-5-3-5-6-11-11-17-15-9-7-16-16-26-23l-1-3c1-3 3-2 5 0l5 5c3 2 3 0 3-2 8 4 15 9 22 15-2-10-9-15-14-22 8 6 13 13 20 20z"/><path fill="#525658" d="m549 96 16 14c11 10 23 19 33 30l6 10c-5-2-10-4-15-8-2-3-5-6-8-7l-3-2c-4-6-8-13-14-18l-14-14c-2-1-4-3-3-6l2 1z"/><path fill="#E1D7D4" d="m590 157 7 12c-1 6 3 11 4 16 1 7 3 13 3 20l-19-33 1-2c6-2 2-4 1-7-1-4-6-7-1-11 3 0 3 3 4 5z"/><path fill="#141920" d="m366 321 10 6a80 80 0 0 1-48-12c-2-1-3-2-3-4 1-2 3-1 5-1a503 503 0 0 1 36 11z"/><path fill="#E8EAEB" d="M520 427c16 8 32 15 44 29 0 2-1 2-2 1-7-4-14-9-23-12-1 0-3-1-2 2l-11-7c-4-3-5-8-6-13z"/><path fill="#0C1729" d="M484 576c-11 0-20-5-28-11l-6-4c-7-6-15-11-21-18 18 11 34 23 55 27l10 1c1 0 2-1 2 1l-1 2c-3 2-7 3-11 2z"/><path fill="#040404" d="m341 358-10 8c-7 6-15 7-24 4-2-1-4-1-5-3 0-2 3-4 5-5l15-4h19z"/><path fill="#0D0F10" d="m549 96-2-1c-4 0-5-3-8-4-5-4-11-8-15-14-2-2-2-2 1-3 15 5 26 15 37 25 0 2 3 3 1 4-1 2-3 0-4-1l-7-5c-1-2-2-2-3-1z"/><path fill="#060606" d="m246 410 18 36c-10-2-15-9-18-18-2-5-3-11 0-18z"/><path fill="#CAC3C1" d="M583 251c2 1 0 4 2 5a252 252 0 0 1 0 60l-4-28c5 0 3-4 3-6l-2-18 1-13z"/><path fill="#080708" d="m498 552 11-5c4-2 8 1 9 5l-18 7c-8 3-17 2-26-2 9-2 17 0 24-5z"/><path fill="#2F597B" d="M484 576c4-1 8 0 12-4-4-2-8 1-12-2 14 2 26-5 39-7 3 0 5-2 8-1v2c-2 3-3 5 1 6 1 0 2 1 1 2h-2c-4-2-9-1-13-1-9 1-17 1-25 5h-9z"/><path fill="#6A6966" d="M536 344c0-12 4-24 6-36l4-15 1 5c0 13 0 26-4 39l-4 6c0 1-1 2-3 1z"/><path fill="#080909" d="M371 492c-2 2-1 4 1 4 3 1 6 3 10 3s8 1 11 5c-3 1-5-1-8-1l-22-8c5 6 13 7 14 15-10-7-21-13-30-22 8 4 16 5 24 4z"/><path fill="#8B8382" d="M518 552c-3-2-5-6-9-5v-1l12-6c3 0 4-1 5-4 2-2 0-4-2-5l17-12c2 2 0 3-1 4-2 2-4 3-3 6 0 4-2 7-4 9l-12 14h-3z"/><path fill="#DCBBAD" d="m531 562-8 1 5-2c5-2 6-3 2-7v-5c1-3 3-4 6-4l10-8 2-1 1 3-6 11c2-2 2-5 5-6h2c-1 6-7 8-10 12l-4 4c-2 1-3 3-5 2z"/><path fill="#D2D0CA" d="M552 360c11 3 20 9 31 14-3 2-5 1-8 0-7-1-14-2-22 0-1 0-3 0 0 2-3 2-6 2-9 0l-2-1c0-2 1-2 2-2l17-1c-2-5-7-8-9-12z"/><path fill="#172B3D" d="m590 157-4-5-8-19c1-2 2 1 3 1l7 7c3 5 8 8 12 11 1 1 3 1 2 3l-3 2c-2 2-4 3-6-1-1-1-3-1-3 1z"/><path fill="#B7B7B4" d="M525 74c-4 1-1 3 0 3l14 12 8 6c3 6 8 11 13 16l4 4c-6-3-9-8-14-12-10-7-20-15-27-25l-1-1c0-2-3-3-1-5 1-1 3 1 4 2z"/><path fill="#E3DAD7" d="M521 552c2-6 8-10 11-14 2-3 4-5 3-9 2-4 6-6 9-9 2-1 3-1 4 2l-14 20c-2 4-5 6-8 9l-3 1h-2z"/><path fill="#D4CFCD" d="M544 376h8c6 0 11 3 16 4 2 1 1 2-1 3h-32l-2 1c-3 0-7 1-10-2l13-1c4 0 7-1 8-5z"/><path fill="#E3E1E1" d="M536 344c3 0 3-2 4-4 5-12 6-25 7-38v-4c2 4 1 8 0 13 0 3-1 6 2 8 0 7-2 14-5 20-1 4-4 7-8 8v-3z"/><path fill="#64615F" d="m379 481-3 6c0-1 1-2-1-2-3 1-5-1-5-3-1-4-3-9-2-13 5-2 11 2 11 9v3z"/><path fill="#C2C4C2" d="m539 110-6-4c-6-7-14-12-21-18-1-1-2-1-2 1l-7-7c-1-1-2-1-1-2h2c9 4 15 11 22 17 5 4 10 7 13 13z"/><path fill="#999" d="M452 614c8 7 16 14 22 22-1 1-2-2-4-1l-25-24c3 0 4 3 7 3z"/><path fill="#7F7B7B" d="M533 384c0-2 2-2 3-2 9 0 19-2 28 0 1 0 4 2 4-2 4 1 6 3 9 5-15-2-29 0-44-1z"/><path fill="#10100D" d="M384 424c-7 8-12 18-21 24 4-10 12-18 21-24z"/><path fill="#2D2520" d="m460 594 26 19c-8-1-14-6-21-10l-6-6c0-1-1-2 1-3z"/><path fill="#A9A6A2" d="m368 469 2 11c0 3 2 5 5 5-4 2-10 0-12-5-2-3 1-8 5-11z"/><path fill="#66615F" d="M371 305c13-1 25 1 38 3-13 2-25 0-38-3z"/><path fill="#C2C3C4" d="M470 299c-7-5-12-11-17-17 4 1 13 9 17 17z"/><path fill="#414742" d="M366 321c-5 2-10-2-14-4l-2-3c0-1 0-2 2-1 5 2 10 4 14 8z"/><path fill="#CDCED1" d="M558 408c5 0 7 4 11 5 0 3 0 3-4 2l-11-4c2 0 4 0 4-3z"/><path fill="#2B2B2B" d="M230 420c4 6 6 13 8 20-5-6-8-13-8-20z"/><path fill="#7A7B84" d="M445 420c-7 4-15 6-23 9 7-5 15-8 23-9z"/><path fill="#48494C" d="M330 374c3 3 6-2 10 2-6 1-10 4-16 2l6-4z"/><path fill="#C9C3BE" d="m385 503 8 1c2 1 5 0 5 2 0 3-3 3-5 4 0-5-5-5-8-7z"/><path fill="#B8B9B6" d="M352 313c-3 1 0 2 0 2 1 1 3 2 0 2l-9-4c3-2 6-3 9 0z"/><path fill="#8D8F90" d="m308 302 12 5c1 1 2 1 1 2-1 2-2 1-2 0l-11-7z"/><path fill="#646464" d="m400 448-1-2c3-4 6-7 11-10l-10 12z"/><path fill="#67686D" d="m564 153-2 1-10-7c4 2 9 3 12 6z"/><path fill="#A8A3A1" d="m460 594-1 3-4-6c0-1 0-2 1-1 2 1 4 2 4 4z"/><path fill="#8B8382" d="m523 552 2-2c2 1 4-1 6-1-1 2 2 4-1 5-2-3-5-1-7-2z"/><path fill="#D2D0CA" d="M544 357c3 1 6 1 8 3-3 0-6-1-8-3z"/><path fill="#B5B7BD" d="m268 210-1 2-10-19c4 6 9 11 11 17z"/><path fill="#ABACAC" d="M494 1022c0-1-1-3 1-3 1-1 2 1 2 2l17 31v1c-2 10 4 18 7 26 1 3 4 5 4 9l-10-8c-1-1-3-3-4-2-2 2 0 3 0 5-3 0-3-3-4-5-7-14-10-29-12-45-1-3-3-7-1-11z"/><path fill="#B9B8B4" d="M524 1066c-3-2-3-5-4-8-2-2 1-3 3-3 8 2 16 0 23 6 1 1 3 2 4 0 2 1 4 3 3 5-1 3-4 2-6 2l-5-2-2-1c-6 2-10-1-14-3-4-1-2 3-2 4z"/><path fill="#7C8280" d="m543 1051-13-17c0-1 0-2 2-1 8 5 15 10 17 20 1 3 0 3-2 2l-4-4z"/><path fill="#4B4D4A" d="m574 1104-2 3-1-3c0-1-2-3 0-4 3 0 3 2 3 4z"/><path fill="#000F13" d="M581 1116c-3-2-4-5-5-8l5 8zM608 1148c-3 4-4 4-6 0 2 2 4 1 6 0z"/><path fill="#9A0011" d="m621 1421-1 1c-2 1-4 0-3-3v-13c0-8 0-15-2-23-1-6 1-12 4-19 5-12 5-24-1-36-6-10-9-20-10-32-1-9-3-19-7-28-3-5-3-10 3-13 5-4 12-6 18-8 4 0 6-2 5-7-1-11 0-21 1-32 2-1 3 0 4 1 1 7 4 12 6 18s-1 11 0 16c0 2 0 3 2 3 3 4 2 8 2 12 2 32 1 64 1 96 0 3 0 6 2 9 2 2 1 3-1 3-6 2-10 8-15 10-2 1-3 3-3 5-1 9-2 17-5 26-2 4-3 9 0 14z"/><path fill="#5F0109" d="M604 1255c1 2-1 2-2 3-3 1-2 3-1 6 5 11 8 23 9 35 1 10 4 19 8 27 5 9 7 17 5 27 0 6-2 10-4 16-2 5-4 11-2 18 3 10 0 20 0 31 0 2 0 4 3 4-3 2-4 1-4-2v-14c0-15-2-30-6-44-3-7-4-14-4-21 0-12-3-23-3-35 0-10-2-19-3-28 0-5-3-9-4-14l-4-2c3-4 7-6 12-7z"/><path fill="#910118" d="M586 1224c-4-11-2-22-2-32 0-3 3-5 6-5l15-1c8 0 9-1 9-10 0-4 0-9 6-10-3 5-2 10-3 15l-3 27 2 4-30 12z"/><path fill="#363432" d="M613 1025c8 7 13 16 14 26l-14-26z"/><path fill="#FD002D" d="M778 1101c5 0 9-3 14-5 2-1 4-2 5 0 2 4 4 1 6 0 1-2 3-3 3-5h3c2 3 4 1 6 0 6-1 10-5 16-6 5-2 10-4 14-8 2-4 6-4 10-6l14-4c3-1 5-1 7-3l4-2c6 1 11-1 15-5 3-3 6-3 10-2 3 1 5 1 6-3 0-2 1-3 3-3 6-1 13-3 19-7 2-2 6-1 9-2 7 0 10-5 15-7 2 0 2-2 5-1l4-2c3-4 7-5 12-5h2c5-5 12-9 18-9 7 0 11-4 16-7 4-2 9-2 12-5h4c3 0 4-1 5-2 2-3 6-5 9-4 3 2 4 6 2 10l-1 4c1 13 3 25 2 37v38l-2 44c-1 11-1 22 1 34v61l-1 1c4 9-6 15-4 24l-2 2c-7 5-14 13-24 11-3 0-5 1-5 4l-1 2c-6 0-9 6-15 4-3 0-4 0-6 3-2 4-7 3-11 4l-22 9c-3 2-6 5-11 2l-2 1c-5 5-12 7-18 9-4 2-8 5-13 3h-1c-4 6-11 4-15 9l-2 1c-8-2-13 6-20 5-4 0-7 3-10 5-5 2-10 3-14 7-2 1-4 2-6 0-3-2-7 2-10-2h-1c0 4-5 5-6 9-1 0 0 2-2 2s-5 4-7 0c-1-2 1-5 3-6 5-2 4-7 5-10l4-4c5-1 6-5 4-10-1-4-2-9-1-13 0-2 1-4 4-5 4 0 6-3 7-7a568 568 0 0 1 22-11c6-3 6-4 4-10l-16-39-32-86v-1c-3-8-3-8-10-4l-11 5c-5 1-9 3-12 7-3 0-3 3-3 4 0 3 0 5-2 7-1 0-2 1-2 3-1 9-7 17-13 24-5 7-12 7-15-1l-7-5c-2 0-4-2-5-4l-4-9h-9l-32 14h-4c0-1-3 0-3-2s2-3 3-3c4-1 5-6 9-5l1-3c0-2-1-3-2-3-2 1-3 0-3-2 1-5-1-10-1-16 0-5 2-9 4-13 2-3 6-4 10-5l24-10 30-11c5-2 9-5 14-6z"/><path fill="#FEFEFE" d="m693 1180 38-17c4-1 5 0 5 3 3 4 1 9 1 14v15c0 2-1 4-3 5-16 5-30 13-45 19l-10 4c-3 1-5 3-5 6l1 13c0 3 1 4 4 3 14-7 29-11 43-16 2-1 5-3 8-1 1 5-1 10 1 15v16c0 3-1 5-5 7-16 5-31 13-47 19-2 1-3 2-3 4v19c0 2 1 3 3 2l43-16 11-5c4-3 6-2 6 4l1 29c0 4-2 5-5 7l-86 34-3 1c-3 1-4-1-4-4v-80l-2-34-1-39c0-4 2-6 5-7l49-20z"/><path fill="#DD0025" d="M646 1364c7-5 15-8 22-11 20-8 41-15 61-24 3-2 9-1 10-6 1 0 3 1 3-2 0-1 1-2 3-1 1 3 3 2 5 1l21-9c3-1 4-3 4-6l6-24c0-4 2-6 5-7l7-2c2-1 4-2 6 0 1 1 0 2-1 2-3 1-6 4-10 4-2 0-3 2-3 4 0 3 0 5-2 8-3 6-2 13-2 19l-2 5c-5 4-9 10-16 13-3 1-5 5-4 8 2 8-2 14-5 20-1 3-5 6-2 9 2 3 6 2 10 0l45-17 5-1c-16 8-34 14-51 20l-92 36-13 5-20 7-12 5-3 1c-1 0-3 0-3-2 0-5 0-10 2-14 3-8 4-16 5-24 0-3 1-6 4-7 4-1 6-4 9-6l8-4z"/><path fill="#5F0109" d="M636 1415c6-3 13-6 20-7-6 3-13 6-20 7zM624 1420c3-3 7-5 12-5-4 3-8 4-12 5z"/><path fill="#F3F7FA" d="m494 1022 7 37c2 8 5 17 10 24l5 12c2 3 3 7 3 11l-1 3-4-1c-4-4-6-9-9-13l-8-15-9-39-2-21c0-2 1-3 3-3 2-1 3 0 4 2l1 3z"/><path fill="#FEFEFE" d="M633 521c0 3-2 2-4 2h-13l-17 1c-2 1-2 2-1 4l-1 2c-3 2-10 1-12-2v-4l1-14c0-7 2-14 4-20 6-14 7-29 13-43 9-22 23-41 45-52 6-3 13-5 20-5l28 1c-6 5-13 9-18 15l-2 4c-19 22-30 46-35 74-1 7-2 8-9 6l-9-1-11-1c-3-2-6 0-8-1h7c7 3 14 3 20 7 6 3 7 6 4 12-2 3-5 4-8 3l-7-1-10 1 18 7c2 1 4 2 5 5z"/><path fill="#FDFEFE" d="M704 407c3 2 6 0 8-2s3-2 3 1 4 6-1 9c-3 3-5 6-8 7-5 3-11 4-12 11l-2 3c-5 6-7 13-10 19-1 2 1 4 1 6-5 20-10 40-13 61l-3 16c-1 5-1 11-5 15l-7 5c-2 1-4 1-5-2v-13c2-33 8-65 21-96 7-16 18-30 33-40z"/><path fill="#010101" d="m612 487 6 1c6 0 11 0 17 2 3 1 4 0 5-4 4-29 16-54 35-77l3-3c4 0 8-3 12-4 3-1 5 0 6 2 2 2 0 4-1 5l-15 17v1c-11 5-10 17-15 26-4 8-6 19-8 28 0 6-2 12-4 17l-5 18c-1 5-5 5-8 5h-7c-8-7-18-9-29-12 3-2 6-2 8-2l17 1c5 0 5-3 6-6s0-4-2-6c-5-3-11-4-16-6l-6-2 1-1z"/><path fill="#B3ADB2" d="M585 528c4 1 9 4 13 0l1-1c9 0 19 1 27 5l3 2c1 2 0 2-1 3l-8 2c-9 0-19 2-27-4h-3l-1 3c1 2 1 4 3 5 4 0 7 3 10 3 7 1 13 2 20 5 1 0 5 0 4 4 0 3-3 3-6 3-12 0-23-2-35 1h-1v-17l1-14z"/><path fill="#7E7776" d="M584 559c12-4 24-2 36-1h-27c-2 0-4 0-6 2 1 2 2 2 4 2l21 6 11 7 1 6c-1 3-3 3-5 3l-17-1h-10c-9 1-9 1-9-8l1-16z"/><path fill="#B6B4B7" d="M666 554v14c-1 12 0 23 1 34 1 7-4 12-11 12-3-1-3-4-3-6-3-13-4-27-4-41v-1c2 2 2 2 1 8 1-4 3-4 5-4 7 0 8-4 9-10 0-2-1-5 2-6z"/><path fill="#ABA7A0" d="M528 605c-2 0-3-2-5-3-1-1-3-2-2-3 0-2 2-2 4-2 3 0 7 1 10 3l11 3c-9-8-15-18-23-25 3-4 8-4 13-6 8-1 16-4 25-2l-27 8 17 2c3 1 5 1 7 3s3 3 3 5c-1 2-3 2-5 2-4 1-9-1-14-1h-3l2 3 3 2 10 7 9 8c1 1 3 3 2 5-1 3-3 2-5 1-9-1-16-7-24-10l-12-5c1 3 3 3 4 5z"/><path fill="#9E0311" d="M718 451c-7 11-9 23-13 36v2l-4 32c-3 13-3 25-3 38 0 15 1 30 9 44l1 5c-5-12-12-22-12-36l-1-33 2-21 7-32c3-10 4-21 10-30l4-5z"/><path fill="#FBFDFD" d="M462 504c-6 0-12-6-12-11s6-9 13-9c5 0 11 5 11 10s-6 10-12 10z"/><path fill="#EFF1F2" d="M709 356v8c0 1 1 4-2 4-2 0-4 0-6-3l-2-8-1-21c0-5 4-5 7-5 2-1 2 2 2 4l2 21z"/><path fill="#F41330" d="M723 444c7-1 11-7 16-10l18-6 4 1c3 4 8 4 12 5 6 2 13 3 18 7 2 1 3 2 3 4-8-5-17-8-26-9s-18 0-26 3l-1 1c-7-1-12 4-17 8-1 0-2 2-3-1l2-3z"/><path fill="#E5E4E5" d="M666 554c-2 3-1 7-2 11s-3 6-7 6-7 1-5 7c-3-4-1-9-3-12v-8l1-1c4 2 8-1 10-4 3-3 7-7 6-13l1-2-1 16z"/><path fill="#010101" d="M626 532c-9-1-19-4-28-4-2 0-3 0-4-2l3-3h19c2 2 5 1 8 1 2 0 4 0 6 2 2 1 3 2 2 4-1 3-2 3-4 2h-2z"/><path fill="#DAD6D1" d="m531 622-3-2c3-1 6 1 9 1 4-1 5-2 3-6-1-3-5-3-6-6 8 4 15 9 22 15 1 1 3 3 2 5s-3 3-5 2c-4 0-8-2-11-4l-11-5z"/><path fill="#959294" d="M602 546c-5-1-12 1-14-7-1-2-1-4 1-6 1-2 3 0 5 1 5 3 10 4 17 4 5 0 11 1 17-2l1-2c3 4 0 6-3 6h-13c-3 0-7-1-10 3h-5l4 3z"/><path fill="#80767A" d="M604 270c-7-14-9-29-12-44 2 1 2 1 7 10v-3c3 12 5 25 5 37z"/><path fill="#F6F8F9" d="m485 478 9 3c3 1 4 5 2 9s-5 3-8 2c-3-2-6-5-7-8-2-4-1-6 4-6z"/><path fill="#ADA7A4" d="M524 531c4-1 4 1 4 4 0 4-2 7-6 7-3-1-4 0-6 2-2 3-5-1-7 2 0-2-1-4-3-4 1-3 4-3 6-4l12-7z"/><path fill="#A09F99" d="M531 622c4 0 8 3 11 5 3 1 6 3 10 3 5 1 6-1 4-6 5 2 9 7 14 10 0 2-1 3-3 3-13-3-25-7-36-15z"/><path fill="#1B2C39" d="M536 572c-4 3-8 5-13 6-3 1-4 1-5-2l13-4c2 0 3-1 1-2h-6c2-3 2-6 5-8l5-2v12z"/><path fill="#7D6156" d="M550 544h-2c-3 0-1-2-1-3l7-12c3-3 5-5 9-6-3 8-5 16-13 21z"/><path fill="#C1B0AA" d="M548 522c-1-3-2-2-4-1l-9 8c0-3 2-4 4-6l2-4c5-6 12-7 19-9-5 3-7 9-12 12z"/><path fill="#535655" d="M544 594c-3-1-6-3-8-7l17 2h4c1 0 2 0 3-2l-2-2c-2-3-4-4-7-5 7 0 10 2 12 7 1 4 0 6-5 5l-18-3 4 5z"/><path fill="#B2927D" d="M554 529c2 0 1 1 1 2l-7 10v3c-2 3-4 7-8 8 4-4 7-9 8-15-5 1-7 7-12 8v-1l18-15z"/><path fill="#929797" d="M727 291c2 3 6 4 9 5l-2 2-7 3c-2 0-3 1-4-1 2-1 1-4 1-6s0-3 3-3z"/><path fill="#7B8288" d="M542 506c5-6 9-7 17-4-6 1-12 4-17 6v-2z"/><path fill="#4F4440" d="m512 538-6 4c-5 2-10 4-15 3 7-2 13-4 19-8l2 1z"/><path fill="#D3D8DA" d="M431 514c5 4 9 8 12 14-6-3-9-8-12-14z"/><path fill="#8B8F93" d="m615 185-1 2-16-17c4 0 5 4 8 6 3 3 7 5 9 9z"/><path fill="#6E6D65" d="M560 615c1-1 4 1 5-1 0-2-2-3-3-4l-8-9c5 2 8 6 12 10 1 1 2 3 0 4-2 2-4 2-6 0z"/><path fill="#363C42" d="M542 506v2c-3 1-5 5-9 5 0-3 5-4 2-8 2 1 4 2 7 1z"/><path fill="#563938" d="M536 544v1l-5 4c-2 3-4 3-6 1l9-8c0 1 0 2 2 2z"/><path fill="#7E7776" d="M584 542v17c-2-6-1-11 0-17z"/><path fill="#717577" d="M565 415c1 0 4 1 4-2 2 1 3 1 5 4l-9-2z"/><path fill="#B6B4B7" d="m650 557-1 1 1-15v14z"/><path fill="#97A4AD" d="m562 457 2-1c3 1 4 3 6 6-4-1-6-3-8-5z"/><path fill="#B3ADB2" d="M586 510c0 5 1 9-1 14 0-5-1-9 1-14z"/><path fill="#3B312D" d="m193 594-11 19v2c-1 1-2 4-4 4-3 0-3-3-3-5 8-10 14-21 23-30l3-2 2 1-10 11z"/><path fill="#141515" d="M183 557c5 4 9 2 14 2h15l-24 9c-2 1-4 1-3-2s-1-5-2-9z"/><path fill="#1B1819" d="M224 703c4 3-1 2-1 3-12 0-22-3-32-10 11 4 22 5 33 7z"/><path fill="#9E9F9D" d="m174 614-2 4c-6-9-14-17-15-30l13 24c1 1 1 4 4 2z"/><path fill="#313236" d="M214 685c-7 1-15 3-22 1l-2-2 2-1 22 2z"/><path fill="#7F8284" d="m322 657-4 1h-13v-2c6 0 12-1 17 1z"/><path fill="#5A5A5A" d="m192 674 8-5h3c1 1 0 2-1 2-3 2-6 4-10 3z"/><path fill="#818B98" d="m269 542-1 1c-2 0-4-1-7-4 4 1 6 1 8 3z"/><path fill="#BBB9B4" d="M467 652c7 8 16 13 25 17 5 1 11 3 17 1 1 0 3 0 3 2 1 2-1 2-2 2-3 0-5 1-7 3-6 0-11 3-17 4-14 3-31-10-31-25l1-5c2-2 3-4 1-7 3 1 4 5 7 5l3 3z"/><path fill="#D2D0CB" d="M518 576c1 2 3 2 5 2 4 1 6 3 8 6 4 6 9 12 15 16l2 3c-1 2-3 1-4 1-5 0-9-3-13-5l-6-1c-4 0-5 1-2 4l-3-2c-2-1-2-3 1-3 4-1 8-2 7-7 0-4-7-10-11-11-1 0-2 1-4-1l5-2z"/><path fill="#2E2E31" d="M522 643c11 4 23 5 34 10-4 2-7 1-10 1-8-1-16-3-23-7h-2l-3-2c-1-1-3-1-2-3h3l3 1z"/><path fill="#312D2A" d="M469 583c10 3 20 2 30 4-5 5-23 3-30-4z"/><path fill="#AAA" d="M522 643h-5c0 2 4 1 4 4-10-5-10-5-13-10 4 3 10 3 14 6z"/><path fill="#B9B8BA" d="m523 647 23 7c-8 1-16-2-23-7z"/><path fill="#505663" d="M148 692c-2 3-4 6-7 7-1 0-2 1-2-1-1-1 0-1 1-2l8-4z"/><path fill="#FDFDFD" d="M409 727c-4-6-9-6-14-4-16 3-32 3-49 3-4 0-5-1-4-6 2-5 6-8 11-11 17-10 40-6 52 8 3 3 5 5 4 10z"/><path fill="#CDCFCC" d="M697 662c-7 6-16 3-19-5l-2-3 4-3c7-3 7-3 10 3 1 4 4 6 7 8z"/><path fill="#01080C" d="m650 670-6 1c0-2 1-4 3-4s3 1 3 3zM664 678l-9-4c4 0 8 0 9 4z"/><path fill="#050605" d="M676 785c-2-1-2-1-2-3-2-11-5-21-10-31l-9-14 1-2 6 6c-5-10-11-16-16-23 1-2 2-4 6-3l1 1 5 6c6 5 9 12 12 19l6 20c2 6 2 13 0 19v5z"/><path fill="#7F7374" d="M741 829c-5-7-13-12-18-19l-6-9c-1 0-2-1-2-3s0-4 2-1l7 7c2 2 4 4 8 3 4 0 8 1 10 5l6 6h-4c-5-2-6-2-5 4l1 2 1 2v3z"/><path fill="#000F13" d="M689 779v10l-1-10h1z"/><path fill="#070604" d="M369 818c2 2 1 4 1 6-1 18-11 32-22 45l-3 5c-2-2 0-4 0-6-1-7 4-13 7-18l15-30 2-2z"/><path fill="#B8B6AD" d="M369 818c-5 13-13 25-19 38l-5 12c-2-4 0-8 2-12l10-20c6-8 10-17 13-27a2531 2531 0 0 1-1 9z"/><path fill="#252B2B" d="M658 722c-2-1-4-3-5-6 2 2 4 3 5 6z"/><path fill="#97908E" d="M727 764c2 3 2 7 3 10-3-3-3-6-3-10z"/><path fill="#C4C5C7" d="M672 830c7 14 11 29 18 44-11-14-19-29-27-44 3-2 6 1 9 0z"/><path fill="#FEFEFE" d="M799 1273c-6 1-10 4-15 4-2 0-2 2-2 3-1 10-5 19-6 29 0 2-1 4-3 4-8 1-15 6-22 9l-2 1c-4 2-6 1-5-3v-5l6-27 1-3 18-69 7-22 9-39c1-3 0-6 3-8 2-4 5-6 9-8 6-2 12-4 18-8 4-2 5-1 6 3a2628 2628 0 0 0 50 132c2 6 1 6-4 9l-24 11c-3 0-4-2-5-4l-6-21c-1-3-2-2-4-2l-29 14z"/><path fill="#020F14" d="M781 612c-7 4-12 11-19 15-10 5-20 8-29 0-7-5-12-12-15-20-10-23-9-47-7-71l7-39c2-9 5-16 13-21 3-5 8-7 13-9l9-5c5-2 10-4 15-3l5 2 14 27c2 4 3 8 7 11v-11l-1-2-3-15c2-4 3-4 7-1 4 6 5 13 6 19 2 11 1 21 1 32l-5 42c-1 13-5 26-11 38l-7 11z"/><path fill="#6B0107" d="m788 601 8-23 6-45c1-12 2-23 1-35-1-10-2-19-7-28-7-7-14-16-24-20-5-2-10-2-16 1-1 1-3 3-5 1 2-3 2-4-2-4-2 0-6 1-6-1-1-2 3-4 5-5 7-5 16-4 24-3 4 0 7 2 10 3s5 3 6 5c2 9 7 16 11 24 2 5 2 12 5 17 2 28-1 55-5 82-2 10-5 19-9 28l-2 3z"/><path fill="#430B27" d="m751 452 11-5c5-1 10 1 14 3 9 5 15 11 20 20-2-2-4-3-5 1-3 0-3-4-5-5-4-5-7-10-12-12-7-3-13-4-20 1l-6 4c-4 1-6 5-9 7-2 2-3 4-5 3 3-8 10-12 17-17z"/><path fill="#C2D6E8" d="M734 469c5-3 8-9 13-11 0 3 1 5 4 4l2 1-22 13c0-3 2-5 3-7z"/><path fill="#F10121" d="m802 467 2-2 1 2-2 2-1-2z"/><path fill="#838A86" d="m587 142-6-8c1-1 2 0 3 1 5 6 13 10 20 15l11 11v2h-2l-11-8-2-3-13-10z"/><path fill="#3E4D57" d="M613 163c1 0 2 0 2-2l7 8c-4 0-6-3-9-6z"/><path fill="#3B4041" d="M740 824c-2-1-2-2-2-3-1-2-1-5 1-6 2-2 3 1 4 1l5 2 5 4-4-1c-4-4-7 0-9 3zM741 829v-3c2 4 5 8 5 12l-5-9z"/><path fill="#97908E" d="M717 801c3 2 4 6 6 9-3-2-5-5-6-9z"/><path fill="#525658" d="M587 142c5 3 10 5 13 10-5-2-10-5-13-10z"/><path fill="#FEFEFE" d="m955 1195-8 15c-1 3-3 7-5 7-4 0-5-4-6-6l-20-37-2-1-1 5-2 73c0 5-2 8-7 9-7 3-15 6-21 10-3 2-4 1-4-1l-1-12v-137c0-5-2-10 0-13 3-4 8-3 12-5l12-6c4-2 5-2 6 1 8 15 16 29 26 42 2 3 4 9 8 9 3-1 3-6 5-10l28-66c2-5 5-8 10-10 7-2 14-6 21-10 5-2 5-2 5 3l1 80v77c0 3-1 5-4 7l-21 11c-6 3-6 3-8-4-2-2-1-4-1-6v-72l-17 36c-2 3-3 8-6 11z"/><path fill="#E8001D" d="m788 1147-5 23-6 24c-2 1-1 4-2 5l-12 34-7 17c-2 3-1 7-1 11a161 161 0 0 1-3 25l-1 2-1 2c0 4-3 5-6 5-3-1-5-2-5-6 1-10-1-20-2-30 0-6 0-13-6-17l-1-2c0-6-1-12 1-18l1-9 1-5c6-8 3-18 4-27l-1-1v-14c0-2-1-4 1-5 0 4 4 7 5 11 1 3 2 6 7 6 3 0 5 3 5 5 4 9 10 6 14 0l11-16 1-6 1-4c2-2 4-3 3-7-1-1 1-4 4-3z"/><path fill="#EB0513" d="M955 1195c3-10 8-18 12-27l11-24h1v85c-1-4-5-6-5-9l-1-11 1-11c0-4-1-9-4-12-2-3-5-3-6 1-1 5-5 6-9 8z"/><path fill="#D40113" d="M737 1180h1c0 7 3 15-1 21-4 8-3 16-5 23-2 5-1 11-1 16l1 2c7 3 6 11 7 17l2 19-1 10c0 3 0 6 3 6 2 0 7 1 6-4l1-2h1v1l-7 31-1 2-1 4c-3 1-2-2-3-3-2-9-1-18-1-28v-5c0-2-1-2-3-1-18 11-39 15-57 23-2 1-4 2-3-1 0-8 1-16-1-24 0-2 0-3 2-3 8-1 15-6 23-9 10-4 19-9 29-11 2-1 2-2 2-4v-16c-2-5 0-11-1-16l-7 2c-6-10-5-14 3-21l8-9c2-1 3-2 3-4l1-16z"/><path fill="#CF010C" d="M734 1200c1 0 2 0 0 1l-11 11c-3 4-5 8-2 13l1 5-28 10-17 7c-2 2-3 1-3-2l-1-18c0-2 0-4 3-5 17-5 32-14 48-20l10-2z"/><path fill="#E8001D" d="M729 1228c2 5 0 11 1 16l-1-16z"/><path fill="#FD002D" d="M737 1180c0 5 1 11-1 16v-16h1z"/><path fill="#6D727C" d="m612 487-1 1c-4 0-7 1-11-1 4-1 8-2 12 0z"/><path fill="#EA020F" d="M792 1242c4-19 11-37 14-57 3 3 3 6 4 9l8 31c1 3 1 5-2 6l-24 11z"/><path fill="#D40113" d="M752 1286c-1-2-2-4-1-7 3-8 2-17 3-25l1-5 6-16c4-8 5-18 11-26 2-3 2-7 3-11 0-1 0-2 2-2l-14 48-11 44z"/><path fill="#F2F9FC" d="M753 463h-2c-2 1-4 1-6-1-1-2 2-2 2-4l7-5c11-6 23-3 30 8l3 4c1 4-2 2-3 2-3-2-5-4-9-4l-2-1c-7-4-13 0-20 1z"/><path fill="#214045" d="M773 462h2c5 3 7 9 11 13 5 5 7 11 8 17 0-1-1-3 1-4 2 4 1 8 1 11l-1 2c-1 1-1 0-2-1-4-4-6-10-8-15-4-8-9-14-12-23z"/><path fill="#668A8D" d="M795 488c0 2 1 4-1 7-2-3-2-5-2-8-3-8-10-13-14-20l-3-5c4-1 6 2 9 4 5 6 7 13 9 20h1l1 2z"/><path fill="#CCC1D0" d="M794 486v2c-1 1-1 0-1-1l-9-21c1-1 2 2 3-1 2 2 2 5 4 6l3 15z"/></svg>